<svg xmlns="http://www.w3.org/2000/svg" width="285.285" height="105.618" viewBox="0 0 285.285 105.618">
  <g id="logo" transform="translate(-545.573 -408.785)">
    <g id="Group_513" data-name="Group 513" transform="translate(702.315 408.785)">
      <path id="Path_67880" data-name="Path 67880" d="M946.32,492.878c-.823-8.652,1.793-17.582,8.015-25.536,7.5-9.561,18.613-16.07,30.517-19.4l-.242-1.922a68.89,68.89,0,0,0-21.1,8.274,51.358,51.358,0,0,0-15.946,14.551,36.128,36.128,0,0,0-6.041,27.7A54.3,54.3,0,0,1,946.32,492.878Z" transform="translate(-938.533 -431.033)" fill="#167f66"/>
      <path id="Path_67881" data-name="Path 67881" d="M1066.922,489.99q-.7-.792-1.442-1.55a24.069,24.069,0,0,1-2.671,2.915q.519.6,1.019,1.221c9.595,11.715,11.139,28.293,3.061,41.245-10.9,17.763-32.875,25.447-52.968,24.917-16.737-.34-34.035-5.875-46.2-17.632a41.379,41.379,0,0,1-6.24-7.592,21.719,21.719,0,0,0-4.155,2.826c14.521,21.191,42.819,28.356,67.2,24.783,13.957-2.2,27.786-7.557,38.388-17.12C1079.494,529.068,1081.95,507.024,1066.922,489.99Z" transform="translate(-948.35 -456.382)" fill="#167f66"/>
      <path id="Path_67882" data-name="Path 67882" d="M1162.381,453.356a70.991,70.991,0,0,0-24.825-9.234l-.118,1.906a65.383,65.383,0,0,1,22.884,9.8C1161.125,454.954,1161.819,454.1,1162.381,453.356Z" transform="translate(-1055.977 -429.9)" fill="#167f66"/>
      <path id="Path_67883" data-name="Path 67883" d="M1143.028,498.638c1.916-14.031,15.385-20.079,24.022-27.456a30.931,30.931,0,0,0,3.594-3.548,17.73,17.73,0,0,0,2.127-3.1,13.215,13.215,0,0,0,1.382-4,14.853,14.853,0,0,0-.369-6.29s-.572-1.467-.711.088a10.1,10.1,0,0,1-1.59,4.759l-.24.417a13.915,13.915,0,0,1-1.769,2.362,24.735,24.735,0,0,1-2.561,2.393c-1.171.966-2.472,1.91-3.845,2.858C1153,474.073,1139.019,481.264,1143.028,498.638Z" transform="translate(-1058.898 -435.574)" fill="#167f66"/>
      <path id="Path_67884" data-name="Path 67884" d="M1114.87,428.329c.016.5.035,1.031.055,1.6.058,1.707.129,3.723.2,5.929.408,11.8,1.008,29.083,1.094,33.945.078,4.406-.542,19.446,6.191,19.771-14.922,35.043,45.813,13.009,37.606-18.075a32.157,32.157,0,0,0-4.3-8.629c-.632-.852-3.148,5.086-3.485,5.8-1.557,2.718,5.794,6.7,5.335,16.985,0,0-7.282,11.476-25.064,14.747,0,0-12.14,2.159-9.386-10.851,3.732.129,7.981-7.2,15.254-1.988,0,0,.57.4.87-.166a37.228,37.228,0,0,1,4.223-5.559s.286-.4-.644-1.147c0,0-3.554-3.154-6.1-4-2.583-.87-3.018-5.006,5.008-6.1,0,0,2.207-.2,2.284,1.027,0,0,.093,1.206,1.258-.282a31.923,31.923,0,0,0,4.994-8.29c2.733-7.342-10.82.019-16.031,9.644-.319.59-4.235,7.663-1.511,9.132-1.972-1.25-11.4,5.252-12.1-3.041-.853-10.121-.828-29.558-.937-42.945-.016-1.9-.035-3.675-.058-5.285-.009-.609-.019-1.2-.03-1.755-.023-1.2-.049-2.279-.083-3.216,0,0-.106-3.165-.342-4.89-.111-.819-.254-1.312-.427-.99l-1.047,1.218-2.129,2.478a2.462,2.462,0,0,0-.8,2.267C1114.8,426.335,1114.833,427.239,1114.87,428.329Z" transform="translate(-1042.436 -415.248)" fill="#167f66"/>
      <path id="Path_67885" data-name="Path 67885" d="M1087.755,416.591l.325,5.151.09,1.423.4,6.284,2.957,46.948s.212,9.649-3.549,18.034c0,0,8.715-5.384,7.662-19.895,0,0-.848-25.646-1.933-45.114-.124-2.194-.249-4.311-.374-6.3q-.051-.749-.1-1.476c-.143-2.133-.287-4.1-.434-5.838-.213-2.556-.431-4.622-.648-6,0,0-.159-1.4-.542-.928l-3.442,4.164a2.617,2.617,0,0,0-.494,2.193Z" transform="translate(-1026.22 -408.785)" fill="#167f66"/>
      <path id="Path_67886" data-name="Path 67886" d="M1003.647,479.289l-2.45,3.243c-1.269,1.479,2.086,4.309,2.424,4.65.839.826,1.058.392,1.058.392.693-.761,1.465-1.677,1.465-1.677,2.9-3.735-.018-6.086-1.026-6.987C1004.3,478.18,1003.647,479.289,1003.647,479.289Z" transform="translate(-974.398 -450.539)" fill="#167f66"/>
      <path id="Path_67887" data-name="Path 67887" d="M1140.888,481.361c.816.729,1.471-.38,1.471-.38l2.45-3.243c1.267-1.474-2.065-4.29-2.42-4.646.542-.614,1.02-1.182,1.02-1.182,2.9-3.734-.018-6.085-1.024-6.986-.817-.731-1.472.378-1.472.378l-2.448,3.243c-1.267,1.474,2.063,4.291,2.42,4.646-.544.614-1.022,1.183-1.022,1.183C1136.964,478.109,1139.88,480.46,1140.888,481.361Z" transform="translate(-1056.42 -442.181)" fill="#167f66"/>
      <path id="Path_67888" data-name="Path 67888" d="M1195.381,553.418c-.816-.729-1.471.38-1.471.38l-2.45,3.243c-1.269,1.479,2.086,4.311,2.424,4.65.073.07.139.132.2.187-.568.637-1.082,1.248-1.082,1.248-2.9,3.735.018,6.087,1.025,6.987.816.729,1.471-.38,1.471-.38l2.45-3.243c1.271-1.479-2.085-4.309-2.424-4.65-.072-.071-.14-.132-.2-.186.567-.639,1.08-1.25,1.08-1.25C1199.307,556.672,1196.389,554.32,1195.381,553.418Z" transform="translate(-1088.088 -495.061)" fill="#167f66"/>
      <path id="Path_67889" data-name="Path 67889" d="M1101.09,615.421l-2.627,3.1c-1.351,1.4,1.843,4.42,2.161,4.778.035.039.069.076.1.109-.627.63-1.218,1.257-1.218,1.257-3.1,3.568-.322,6.078.633,7.033.775.775,1.492-.3,1.492-.3l2.625-3.1c1.352-1.407-1.841-4.42-2.159-4.779-.035-.039-.071-.076-.1-.109.628-.632,1.218-1.258,1.218-1.258,3.1-3.566.322-6.076-.634-7.033C1101.807,614.351,1101.09,615.421,1101.09,615.421Z" transform="translate(-1032.46 -531.913)" fill="#167f66"/>
      <path id="Path_67890" data-name="Path 67890" d="M1047.61,544.632c-1.133-3.141-2.669-5.361-3.889-4.3a2.3,2.3,0,0,0-.754,2.784c.47.777,1.2,1.206,1.656,1.1.231-.044.4-.5.669-.237a7.569,7.569,0,0,1,2.387,3.343c.049.2.433-.648.637-1.642.212-3.981.448-4.577,2.217-3.174a4.24,4.24,0,0,0,.831-2.367,2.215,2.215,0,0,0-1.813-1.4C1048.374,538.641,1047.9,541.514,1047.61,544.632Z" transform="translate(-999.412 -486.431)" fill="#167f66"/>
      <path id="Path_67891" data-name="Path 67891" d="M1022.035,533.966c.374,3.229.923,10.986,2.325,21.251,1.931-3.576,3.262-5.066,3.963-5.673-.454-5.418-1.626-16.509-1.506-17.863C1026.312,532.711,1023.4,533.592,1022.035,533.966Z" transform="translate(-987.02 -482.22)" fill="#167f66"/>
      <path id="Path_67892" data-name="Path 67892" d="M1043.948,608.608c-3.343-.305-5.448-4.657-6.521-10.717a51.345,51.345,0,0,1-3.444,4.788c1.112,6.865,4.03,11.813,8.427,12.484,7.141,1.086,15.112-7.933,8.549-21.6-.017,0-5.089,3.638-5.133,3.638,0,0,4.564,5.552,4.286,9.016A7.118,7.118,0,0,1,1043.948,608.608Z" transform="translate(-994.159 -519.199)" fill="#167f66"/>
      <path id="Path_67893" data-name="Path 67893" d="M950.322,486.53c2.722-1.345,5.532-2.514,8.231-3.685.138-.055.27-.116.4-.173.014-.007.03-.012.044-.019a.434.434,0,0,1-.12.1c-1.7,4.247-2.921,12.092-1.857,16.684a6.7,6.7,0,0,0,8.429,5.1c7.369-1.843,11.281-12.265,13.815-13.745,2.327-1.357,4.244-1.338,8.638-2.109,3.769-.662,5.5-4.035,6.128-5.764,0,0,1.817-3.978.911-12.264,0,0-1.827-19.151-3.176-33.24-.2-2.067-.386-4.027-.556-5.8-.049-.519-.1-1.02-.145-1.506-.177-1.846-.33-3.433-.447-4.658-.152-1.566-.245-2.537-.263-2.692,0,0-.081-1.008-.629-.586a32.992,32.992,0,0,0-3.347,3.938,3.649,3.649,0,0,0-.863,2.1l.3,2.6c.058.5.124,1.066.194,1.689.159,1.393.351,3.07.565,4.948,1.587,13.96,4.385,39.008,4.238,40.683,0,0,.281,4.01-2.943,4.6a77.319,77.319,0,0,0-8.332,2.358c-4,1.718-4.523,5.647-7.51,9.243,0,0-5.492,5.924-10.758,2.327,0,0-4.307-2.742-.394-15.739a18.658,18.658,0,0,0,1.887-3.126,13.447,13.447,0,0,0,1.476-3.654,18.411,18.411,0,0,0,.081-8.094c3.921.653,9.2-1.606,9.2-1.606a25.434,25.434,0,0,0,11.639-11.026c4.1-8.475-2.062-9.361-2.062-9.361-7.414-.648-17.416,16.493-17.416,16.493a6.393,6.393,0,0,1-3.651-.93,21.944,21.944,0,0,0-1.02-2.915c-.7-1.672-1.031-.035-1.031-.035l-2.141,5.13a2.128,2.128,0,0,0,.268,1.564c4.334,9.226,4.18,11.3,4.065,11.686-4.313,1.781-9.278,3.41-13.778,5.739a34.849,34.849,0,0,0-4.687,2.865,23.012,23.012,0,0,0-4.247,3.977,19.079,19.079,0,0,0-3.155,5.517,22.244,22.244,0,0,0-1.269,5.843.488.488,0,0,0,.921.265,22.469,22.469,0,0,1,2.2-3.511,24.527,24.527,0,0,1,3.254-3.479,32.287,32.287,0,0,1,4.207-3.13A50.393,50.393,0,0,1,950.322,486.53Zm29.893-35.641a2.768,2.768,0,0,1,1.633,3.721s-5.988,5.64-13.009,5.757C968.84,460.366,976.729,449.661,980.215,450.888Z" transform="translate(-935.032 -416.726)" fill="#167f66"/>
      <path id="Path_67894" data-name="Path 67894" d="M973.648,528.909c-1.571,2.449-2.542,4.618-2.383,6.417,0,0,.237,2.388,2.138,2.554,0,0,2,.07,2.374-3.483.071-.351-.041-.314-.224-.108a2.951,2.951,0,0,1-1.562.821q-1.149.1-1.3-1.644c-.064-.75.224-1.7,1.13-4.576C973.876,528.737,973.851,528.555,973.648,528.909Z" transform="translate(-956.673 -480.442)" fill="#167f66"/>
    </g>
    <g id="Group_516" data-name="Group 516" transform="translate(545.573 431.967)">
      <g id="Group_514" data-name="Group 514" transform="translate(0)">
        <path id="Path_67895" data-name="Path 67895" d="M559.759,487.291a1.322,1.322,0,0,0,.262-.941v-5.737a.2.2,0,0,1,.227-.227h2.093a.2.2,0,0,1,.227.227v6.348a3.219,3.219,0,0,1-.614,2.173,2.684,2.684,0,0,1-2.093.694H548.509a2.6,2.6,0,0,1-2.048-.7,3.264,3.264,0,0,1-.614-2.189v-4.892a.2.2,0,0,1,.227-.228h2.093a.2.2,0,0,1,.227.228v4.3a1.327,1.327,0,0,0,.262.944,1.136,1.136,0,0,0,.831.262h9.419A1.176,1.176,0,0,0,559.759,487.291Zm-7.906-7.839a.2.2,0,0,1-.228-.229v-1.975a.2.2,0,0,1,.228-.229h1.911a.2.2,0,0,1,.228.229v1.975a.2.2,0,0,1-.228.229Zm2.958,0a.2.2,0,0,1-.228-.229v-1.975a.2.2,0,0,1,.228-.229h1.911a.2.2,0,0,1,.227.229v1.975a.2.2,0,0,1-.227.229Z" transform="translate(-545.737 -472.739)" fill="#a48356"/>
        <path id="Path_67896" data-name="Path 67896" d="M691.473,513.653h-1.911a.2.2,0,0,0-.229.229v1.976a.2.2,0,0,0,.229.229h1.911a.2.2,0,0,0,.229-.229v-1.976A.2.2,0,0,0,691.473,513.653Zm-2.959,0H686.6a.2.2,0,0,0-.225.229v1.976a.2.2,0,0,0,.225.229h1.911a.2.2,0,0,0,.229-.229v-1.976A.2.2,0,0,0,688.514,513.653Z" transform="translate(-629.71 -494.63)" fill="#a48356"/>
        <path id="Path_67897" data-name="Path 67897" d="M638.818,476.433h-2.1a.2.2,0,0,0-.225.229V482.4a1.321,1.321,0,0,1-.26.942,1.147,1.147,0,0,1-.833.26h-20.52a1.362,1.362,0,0,1-.966-.4,1.872,1.872,0,0,1-.444-1.351,2.635,2.635,0,0,0,.024-.372v-.4a6.962,6.962,0,0,0-.355-2.358,3.969,3.969,0,0,0-.98-1.563,3.8,3.8,0,0,0-1.495-.863,6.58,6.58,0,0,0-3.716-.01,3.771,3.771,0,0,0-1.471.84,3.924,3.924,0,0,0-.983,1.495,6.634,6.634,0,0,0-.375,2.235v.341a2.338,2.338,0,0,0,.024.338,2.424,2.424,0,0,1-.454,1.625,1.343,1.343,0,0,1-.98.44h-5.119a1.134,1.134,0,0,1-.829-.26,1.322,1.322,0,0,1-.263-.942V470.631a.2.2,0,0,0-.225-.225h-2.1a.2.2,0,0,0-.225.225v12.378a3.242,3.242,0,0,0,.611,2.174,2.587,2.587,0,0,0,2.03.693h6.027a5.5,5.5,0,0,0,.683-.048,2.968,2.968,0,0,0,.706-.171,2.881,2.881,0,0,0,.666-.358,2.113,2.113,0,0,0,.549-.6,3.459,3.459,0,0,0,1.526,1.023,6.382,6.382,0,0,0,2.047.311,6.275,6.275,0,0,0,2.082-.324,3.468,3.468,0,0,0,1.539-1.055,2.355,2.355,0,0,0,.676.676,3.015,3.015,0,0,0,.8.369,3.5,3.5,0,0,0,.843.15c.225.014.443.021.652.021a1.067,1.067,0,0,0,.109,0H636.4a2.579,2.579,0,0,0,2.027-.693,3.242,3.242,0,0,0,.611-2.174v-6.348A.2.2,0,0,0,638.818,476.433Zm-28.39,6.682a2.37,2.37,0,0,1-3.239.01,3.314,3.314,0,0,1-.518-2.085,3.4,3.4,0,0,1,.518-2.038,1.875,1.875,0,0,1,1.607-.7q2.15,0,2.15,2.74A3.327,3.327,0,0,1,610.427,483.115Z" transform="translate(-574.48 -468.789)" fill="#a48356"/>
        <path id="Path_67898" data-name="Path 67898" d="M710.345,499.421a.2.2,0,0,1-.227-.228v-1.82a.2.2,0,0,1,.227-.227h.5a1.751,1.751,0,0,0,1.376-.478,2.155,2.155,0,0,0,.421-1.456v-9.6a.2.2,0,0,1,.225-.227h2.1a.2.2,0,0,1,.225.227v9.647q0,4.163-4,4.163Z" transform="translate(-643.895 -477.738)" fill="#a48356"/>
        <path id="Path_67899" data-name="Path 67899" d="M750.23,471.424h-1.911a.2.2,0,0,0-.229.229v1.976a.2.2,0,0,0,.229.229h1.911a.2.2,0,0,0,.229-.229v-1.976A.2.2,0,0,0,750.23,471.424Zm-2.959,0H745.36a.2.2,0,0,0-.225.229v1.976a.2.2,0,0,0,.225.229h1.911a.2.2,0,0,0,.229-.229v-1.976A.2.2,0,0,0,747.271,471.424Z" transform="translate(-664.819 -469.397)" fill="#a48356"/>
        <path id="Path_67900" data-name="Path 67900" d="M768.428,478.286A2.928,2.928,0,0,0,767.347,477a4.322,4.322,0,0,0-1.7-.594,17.035,17.035,0,0,0-2.2-.171l3.747-4.392a.238.238,0,0,0-.092-.318l-1.471-1.228a.217.217,0,0,0-.3.068l-4.914,5.778a3.343,3.343,0,0,1-.225.253.415.415,0,0,0-.137.3v1.584a.2.2,0,0,0,.225.232h3.665a2.641,2.641,0,0,1,1.761.485,1.906,1.906,0,0,1,.56,1.508v1.221a5.323,5.323,0,0,1-.058.86,1,1,0,0,1-.249.543,1.134,1.134,0,0,1-.559.3,4.339,4.339,0,0,1-.976.089H751.273c-.048,0-.1,0-.14.007s-.085-.007-.133-.007h-.867a1.134,1.134,0,0,1-.829-.26,1.322,1.322,0,0,1-.263-.942v-7.355a.2.2,0,0,0-.225-.225h-2.1a.2.2,0,0,0-.225.229v.976h-2.276a6.088,6.088,0,0,0-1.662.229,3.743,3.743,0,0,0-1.42.761,3.783,3.783,0,0,0-1,1.423,5.7,5.7,0,0,0-.375,2.208,5.041,5.041,0,0,0,.341,1.945,3.783,3.783,0,0,0,.922,1.331,3.712,3.712,0,0,0,1.365.771,5.472,5.472,0,0,0,1.672.253,4.543,4.543,0,0,0,1.389-.212,3.126,3.126,0,0,0,1.137-.628,2,2,0,0,0,.833,1.378,3.254,3.254,0,0,0,1.741.393H751a.934.934,0,0,0,.14-.007c.041,0,.085.007.133.007h14.193a5.362,5.362,0,0,0,1.495-.184,2.1,2.1,0,0,0,1.038-.638,2.925,2.925,0,0,0,.611-1.195,7.4,7.4,0,0,0,.2-1.884v-1.368A5.473,5.473,0,0,0,768.428,478.286Zm-21.934,1.853a2.755,2.755,0,0,1-.526,1.822,2,2,0,0,1-1.614.621,2.15,2.15,0,0,1-1.5-.5,1.976,1.976,0,0,1-.546-1.539,2.315,2.315,0,0,1,.59-1.832,2.365,2.365,0,0,1,1.57-.5h2.027Z" transform="translate(-661.606 -468.704)" fill="#a48356"/>
        <path id="Path_67901" data-name="Path 67901" d="M843.542,485.61v6.348a3.085,3.085,0,0,1-.648,2.218,3.033,3.033,0,0,1-2.194.649h-.98a2.73,2.73,0,0,1-1.352-.311,2.092,2.092,0,0,1-.853-.884,1.811,1.811,0,0,1-.921.928,4.107,4.107,0,0,1-1.628.266h-1a2.225,2.225,0,0,1-2.208-1.219,1.874,1.874,0,0,1-.911.942,3.979,3.979,0,0,1-1.638.276h-6.031a15.464,15.464,0,0,1-2.164-.14,1.69,1.69,0,0,1-.942-.618v.433a10,10,0,0,1-.2,2.15,3.854,3.854,0,0,1-.666,1.539,2.8,2.8,0,0,1-1.229.921,5.152,5.152,0,0,1-1.908.311h-.84a.2.2,0,0,1-.229-.229v-1.819a.2.2,0,0,1,.229-.229h.5a1.915,1.915,0,0,0,1.024-.229,1.319,1.319,0,0,0,.536-.669,3.633,3.633,0,0,0,.2-1.072c.024-.417.034-.9.034-1.444V485.61a.2.2,0,0,1,.225-.229h2.1a.2.2,0,0,1,.225.229v5.532a1.2,1.2,0,0,0,.512,1.044,6.046,6.046,0,0,0,2.208.362h5.642c.471,0,.768-.123.887-.375a3.4,3.4,0,0,0,.184-1.351v-3.437a.2.2,0,0,1,.225-.229h2.1a.2.2,0,0,1,.225.229v3.754c0,.942.549,1.409,1.652,1.409a4.584,4.584,0,0,0,.8-.055.876.876,0,0,0,.468-.229.9.9,0,0,0,.229-.512,5.6,5.6,0,0,0,.058-.932v-3.437a.2.2,0,0,1,.225-.229h2.1a.2.2,0,0,1,.225.229v3.73a1.308,1.308,0,0,0,.433,1.082,1.8,1.8,0,0,0,1.171.352,3.719,3.719,0,0,0,.87-.078.741.741,0,0,0,.471-.318,1.591,1.591,0,0,0,.195-.669,11.513,11.513,0,0,0,.044-1.157V485.61a.2.2,0,0,1,.225-.229h2.1A.2.2,0,0,1,843.542,485.61Z" transform="translate(-706.565 -477.737)" fill="#a48356"/>
        <path id="Path_67902" data-name="Path 67902" d="M867,469.322h-1.911a.2.2,0,0,0-.229.232v1.972a.2.2,0,0,0,.229.232H867a.2.2,0,0,0,.225-.232v-1.972A.2.2,0,0,0,867,469.322Zm-1.5-2.935h-1.911a.2.2,0,0,0-.229.232v1.973a.2.2,0,0,0,.229.232h1.911a.2.2,0,0,0,.225-.232v-1.973A.2.2,0,0,0,865.494,466.387Zm-1.457,2.935h-1.911a.2.2,0,0,0-.225.232v1.972a.2.2,0,0,0,.225.232h1.911a.2.2,0,0,0,.229-.232v-1.972A.2.2,0,0,0,864.037,469.322Z" transform="translate(-734.591 -466.387)" fill="#a48356"/>
        <path id="Path_67903" data-name="Path 67903" d="M556.044,539.253h-1.911a.205.205,0,0,0-.229.232v1.972a.2.2,0,0,0,.229.232h1.911a.2.2,0,0,0,.229-.232v-1.972A.205.205,0,0,0,556.044,539.253Zm-2.959,0h-1.911a.2.2,0,0,0-.225.232v1.972a.2.2,0,0,0,.225.232h1.911a.2.2,0,0,0,.229-.232v-1.972A.2.2,0,0,0,553.085,539.253Z" transform="translate(-548.785 -509.927)" fill="#a48356"/>
        <path id="Path_67904" data-name="Path 67904" d="M600.445,581.482h-1.911a.2.2,0,0,0-.225.232v1.972a.2.2,0,0,0,.225.232h1.911a.2.2,0,0,0,.229-.232v-1.972A.2.2,0,0,0,600.445,581.482Zm2.959,0h-1.911a.2.2,0,0,0-.229.232v1.972a.2.2,0,0,0,.229.232H603.4a.2.2,0,0,0,.225-.232v-1.972A.2.2,0,0,0,603.4,581.482Z" transform="translate(-577.084 -535.161)" fill="#a48356"/>
        <path id="Path_67905" data-name="Path 67905" d="M664.952,541.517h-2.184a.2.2,0,0,0-.225.229v1.976a.2.2,0,0,0,.225.229h2.184a.2.2,0,0,0,.229-.229v-1.976A.2.2,0,0,0,664.952,541.517Z" transform="translate(-615.467 -511.28)" fill="#a48356"/>
        <path id="Path_67906" data-name="Path 67906" d="M682.731,541.517H680.82a.2.2,0,0,0-.229.229v1.976a.2.2,0,0,0,.229.229h1.911a.2.2,0,0,0,.225-.229v-1.976A.2.2,0,0,0,682.731,541.517Zm-2.959,0h-1.911a.2.2,0,0,0-.225.229v1.976a.2.2,0,0,0,.225.229h1.911a.2.2,0,0,0,.229-.229v-1.976A.2.2,0,0,0,679.772,541.517Z" transform="translate(-624.486 -511.28)" fill="#a48356"/>
        <path id="Path_67907" data-name="Path 67907" d="M616.514,538.235h-2.1a.2.2,0,0,0-.225.229v11.764a1.339,1.339,0,0,1-.263.945,1.136,1.136,0,0,1-.829.259h-1.525a2.331,2.331,0,0,1-1.376-.361,1.205,1.205,0,0,1-.512-1.048V538.464a.2.2,0,0,0-.225-.229h-2.1a.2.2,0,0,0-.225.229v11.764a1.337,1.337,0,0,1-.263.945,1.135,1.135,0,0,1-.829.259h-1.525a2.337,2.337,0,0,1-1.375-.361,1.2,1.2,0,0,1-.512-1.044v-5.532a.2.2,0,0,0-.225-.229h-1.938a.812.812,0,0,0-.26.044.179.179,0,0,0-.123.184v4.716c0,.406-.01.751-.024,1.031a2.315,2.315,0,0,1-.126.683.742.742,0,0,1-.318.382,1.238,1.238,0,0,1-.625.126h-1.89a2.331,2.331,0,0,1-1.376-.361,1.2,1.2,0,0,1-.512-1.044v-5.532a.2.2,0,0,0-.225-.229h-2.1a.2.2,0,0,0-.225.229V549.3c0,.4-.007.727-.021,1a2.09,2.09,0,0,1-.126.655.671.671,0,0,1-.331.365,1.393,1.393,0,0,1-.614.112h-1.092a.2.2,0,0,0-.048,0,0,0,0,0,0-.007,0,.6.6,0,0,0-.082,0h-4.123a1.377,1.377,0,0,1-.969-.4,1.884,1.884,0,0,1-.443-1.351,2.682,2.682,0,0,0,.024-.372v-.4a6.96,6.96,0,0,0-.355-2.358,3.938,3.938,0,0,0-.979-1.566,3.788,3.788,0,0,0-1.5-.86,6.575,6.575,0,0,0-3.716-.01,3.816,3.816,0,0,0-1.471.836,3.943,3.943,0,0,0-.98,1.5,6.627,6.627,0,0,0-.379,2.235v.341a3.015,3.015,0,0,0,.024.338,2.386,2.386,0,0,1-.454,1.621,1.333,1.333,0,0,1-.98.444h-1.3a2.329,2.329,0,0,1-1.375-.361,1.2,1.2,0,0,1-.512-1.044v-5.532a.2.2,0,0,0-.225-.229H568.7a.808.808,0,0,0-.256.044.178.178,0,0,0-.126.184v4.716c0,.406-.007.751-.024,1.031a2.214,2.214,0,0,1-.123.683.742.742,0,0,1-.318.382,1.262,1.262,0,0,1-.628.126h-1.478a.3.3,0,0,0-.058,0,.279.279,0,0,0-.055,0h-8.549c-.047,0-.1,0-.14.007s-.085-.007-.133-.007h-.867a1.134,1.134,0,0,1-.829-.259,1.322,1.322,0,0,1-.263-.942v-7.354a.2.2,0,0,0-.225-.225h-2.1a.2.2,0,0,0-.225.225v.979h-2.276a5.955,5.955,0,0,0-1.662.229,3.742,3.742,0,0,0-1.419.761,3.786,3.786,0,0,0-1,1.423,5.694,5.694,0,0,0-.375,2.2,5.01,5.01,0,0,0,.341,1.945,3.579,3.579,0,0,0,2.286,2.106,5.483,5.483,0,0,0,1.672.249,4.555,4.555,0,0,0,1.389-.208,3.119,3.119,0,0,0,1.136-.628,2,2,0,0,0,.833,1.379,3.256,3.256,0,0,0,1.741.392h1.843c.048,0,.1,0,.14-.007s.085.007.133.007h10.777a4.888,4.888,0,0,0,1.731-.252,1.751,1.751,0,0,0,.955-.922,1.831,1.831,0,0,0,1.044.956,5,5,0,0,0,1.546.218h.819a5.455,5.455,0,0,0,.683-.047,3.36,3.36,0,0,0,.706-.171,2.859,2.859,0,0,0,.666-.359,2.053,2.053,0,0,0,.549-.6,3.423,3.423,0,0,0,1.526,1.021,6.924,6.924,0,0,0,4.133-.01,3.434,3.434,0,0,0,1.535-1.058,2.325,2.325,0,0,0,.676.679,3.208,3.208,0,0,0,.8.369,3.619,3.619,0,0,0,.84.15c.225.01.444.021.655.021.034,0,.072,0,.109,0h3.508a.176.176,0,0,0,.041,0,.022.022,0,0,0,.02,0,.293.293,0,0,0,.055,0h1.795a4.678,4.678,0,0,0,1.706-.252,1.761,1.761,0,0,0,.935-.922,1.831,1.831,0,0,0,1.044.956,5.007,5.007,0,0,0,1.549.218h2.137a4.886,4.886,0,0,0,1.73-.252,1.769,1.769,0,0,0,.959-.922,1.836,1.836,0,0,0,1.041.956,5.009,5.009,0,0,0,1.549.218h1.931a4.054,4.054,0,0,0,1.618-.266.979.979,0,0,1,1.956.048,5,5,0,0,0,1.546.218h2.14a2.575,2.575,0,0,0,2.03-.7,3.226,3.226,0,0,0,.607-2.17V538.464A.2.2,0,0,0,616.514,538.235Zm-64.2,9.818a2.747,2.747,0,0,1-.526,1.823,1.988,1.988,0,0,1-1.614.624,2.148,2.148,0,0,1-1.5-.5,1.981,1.981,0,0,1-.546-1.539,2.316,2.316,0,0,1,.59-1.833,2.348,2.348,0,0,1,1.57-.5h2.027Zm29.459,2.891a2.361,2.361,0,0,1-3.235.014,3.3,3.3,0,0,1-.522-2.085,3.375,3.375,0,0,1,.522-2.038,1.855,1.855,0,0,1,1.6-.7q2.15,0,2.15,2.741A3.292,3.292,0,0,1,581.769,550.944Z" transform="translate(-545.573 -509.319)" fill="#a48356"/>
        <path id="Path_67908" data-name="Path 67908" d="M741.081,550.6q.114-.2.341-.045l1.843.728c.076.031.117.072.125.125a.292.292,0,0,1-.034.171,11,11,0,0,0-.694,1.49,5.157,5.157,0,0,0-.33,1.877,3.478,3.478,0,0,0,.285,1.49,2.734,2.734,0,0,0,.728.967,2.625,2.625,0,0,0,.99.512,4.075,4.075,0,0,0,1.069.148,3.118,3.118,0,0,0,2.1-.694,2.807,2.807,0,0,0,.807-2.241v-8.782a.2.2,0,0,1,.228-.227h2.116a.2.2,0,0,1,.227.227v.751a14.6,14.6,0,0,1,2.366-.9,9.607,9.607,0,0,1,2.685-.375,7.391,7.391,0,0,1,2.548.387A4.468,4.468,0,0,1,760.2,547.3a4.238,4.238,0,0,1,.978,1.718,7.7,7.7,0,0,1,.307,2.241,8.183,8.183,0,0,1-.262,2.3,2.7,2.7,0,0,1-.819,1.331,3.051,3.051,0,0,1-1.456.625,12.789,12.789,0,0,1-2.2.159H752.98q-.546,0-1.069-.011t-1.046-.034a4.612,4.612,0,0,1-1.65,3.572,6.149,6.149,0,0,1-3.9,1.183,7.355,7.355,0,0,1-2.218-.319,4.926,4.926,0,0,1-1.763-.967,4.419,4.419,0,0,1-1.172-1.627,5.776,5.776,0,0,1-.421-2.3,8.144,8.144,0,0,1,.387-2.457A8.811,8.811,0,0,1,741.081,550.6Zm14.493-2.5a8.331,8.331,0,0,0-2.5.385,16.993,16.993,0,0,0-2.184.838v4.078h4.869q.956,0,1.558-.045a1.988,1.988,0,0,0,.933-.26,1.071,1.071,0,0,0,.443-.668,5.622,5.622,0,0,0,.114-1.292,5.126,5.126,0,0,0-.148-1.291,2.091,2.091,0,0,0-.523-.951,2.417,2.417,0,0,0-.99-.589A5.082,5.082,0,0,0,755.574,548.093Zm-.978-4.141a.2.2,0,0,1-.228-.23v-1.975a.2.2,0,0,1,.228-.229h2.184a.2.2,0,0,1,.227.229v1.975a.2.2,0,0,1-.227.23Z" transform="translate(-661.595 -511.281)" fill="#a48356"/>
        <path id="Path_67909" data-name="Path 67909" d="M812.643,544.494v6.348a3.226,3.226,0,0,1-.607,2.17,2.575,2.575,0,0,1-2.03.7h-7.031a2.58,2.58,0,0,1-2.03-.7,3.226,3.226,0,0,1-.608-2.17V538.464a.2.2,0,0,1,.225-.229h2.1a.2.2,0,0,1,.225.229v11.764a1.34,1.34,0,0,0,.259.945,1.145,1.145,0,0,0,.833.259h5.027a1.136,1.136,0,0,0,.829-.259,1.324,1.324,0,0,0,.263-.942v-5.737a.2.2,0,0,1,.225-.229h2.1A.2.2,0,0,1,812.643,544.494Z" transform="translate(-697.805 -509.319)" fill="#a48356"/>
        <path id="Path_67910" data-name="Path 67910" d="M816.4,581.482h-1.911a.2.2,0,0,0-.225.232v1.972a.2.2,0,0,0,.225.232H816.4a.2.2,0,0,0,.229-.232v-1.972A.2.2,0,0,0,816.4,581.482Zm-2.955,0H811.53a.2.2,0,0,0-.229.232v1.972a.2.2,0,0,0,.229.232h1.911a.2.2,0,0,0,.225-.232v-1.972A.2.2,0,0,0,813.441,581.482Z" transform="translate(-704.356 -535.161)" fill="#a48356"/>
        <path id="Path_67911" data-name="Path 67911" d="M849.9,538.464v12.378a3.226,3.226,0,0,1-.607,2.17,2.575,2.575,0,0,1-2.031.7h-4.846c-.037,0-.075,0-.109,0a5.5,5.5,0,0,1-1.246-.136,1.7,1.7,0,0,1-.942-.621v.433a10.015,10.015,0,0,1-.2,2.154,3.873,3.873,0,0,1-.666,1.539,2.8,2.8,0,0,1-1.229.922,5.157,5.157,0,0,1-1.908.307h-.84a.2.2,0,0,1-.229-.225v-1.822a.2.2,0,0,1,.229-.225h.5a1.94,1.94,0,0,0,1.024-.229,1.322,1.322,0,0,0,.536-.672,3.573,3.573,0,0,0,.2-1.068c.024-.417.034-.9.034-1.444v-8.122a.2.2,0,0,1,.225-.229h2.1a.2.2,0,0,1,.225.229v5.532a1.2,1.2,0,0,0,.512,1.044,2.331,2.331,0,0,0,1.376.361h4.256a1.134,1.134,0,0,0,.829-.259,1.337,1.337,0,0,0,.263-.945V538.464a.2.2,0,0,1,.225-.229h2.1A.2.2,0,0,1,849.9,538.464Z" transform="translate(-718.544 -509.319)" fill="#a48356"/>
        <path id="Path_67912" data-name="Path 67912" d="M881.912,553.482a.2.2,0,0,1-.225.227h-2.1a.2.2,0,0,1-.225-.227V538.466a.2.2,0,0,1,.225-.227h2.1a.2.2,0,0,1,.225.227Z" transform="translate(-745.026 -509.321)" fill="#a48356"/>
      </g>
      <g id="Group_515" data-name="Group 515" transform="translate(1.339 57.234)">
        <path id="Path_67913" data-name="Path 67913" d="M556.2,621.472a.28.28,0,0,1-.284-.189l-2.458-5.01h-2.212a.1.1,0,0,0-.114.114v4.9a.167.167,0,0,1-.189.189h-1.853a.167.167,0,0,1-.189-.19v-12.5a.167.167,0,0,1,.189-.19h4.972a4.573,4.573,0,0,1,1.636.284,4.011,4.011,0,0,1,1.295.786,3.565,3.565,0,0,1,.86,1.211,3.846,3.846,0,0,1,.312,1.562,3.686,3.686,0,0,1-.662,2.2,3.731,3.731,0,0,1-1.777,1.344l2.7,5.244a.154.154,0,0,1,.01.171.157.157,0,0,1-.142.076Zm-2.212-7.222a2.043,2.043,0,0,0,1.427-.489,1.692,1.692,0,0,0,.539-1.317,1.714,1.714,0,0,0-.539-1.335,2.043,2.043,0,0,0-1.427-.489h-2.742a.1.1,0,0,0-.114.113v3.4a.1.1,0,0,0,.114.113Z" transform="translate(-548.9 -608.597)" fill="#a48356"/>
        <path id="Path_67914" data-name="Path 67914" d="M580.764,626.956a4.2,4.2,0,0,1-2.433-.671,3.439,3.439,0,0,1-1.351-1.862,5.645,5.645,0,0,1-.234-.974,8.222,8.222,0,0,1-.084-1.257,9.471,9.471,0,0,1,.075-1.267,5.186,5.186,0,0,1,.225-.983,3.379,3.379,0,0,1,1.361-1.853,4.544,4.544,0,0,1,4.739.01,3.464,3.464,0,0,1,1.352,1.843c.05.164.095.328.132.491a5.445,5.445,0,0,1,.095.568q.037.321.057.728t.019.955c0,.126-.069.189-.208.189h-5.615a.1.1,0,0,0-.114.114,1.708,1.708,0,0,0,.038.378,2.345,2.345,0,0,0,.094.322,1.947,1.947,0,0,0,2.042,1.38,2.955,2.955,0,0,0,1.285-.246,2.7,2.7,0,0,0,.851-.624c.1-.1.2-.114.283-.038l1.116.983a.173.173,0,0,1,.019.265,4.42,4.42,0,0,1-1.531,1.115A5.251,5.251,0,0,1,580.764,626.956Zm1.815-5.767a2.476,2.476,0,0,0-.114-.782,1.656,1.656,0,0,0-.661-.868,1.968,1.968,0,0,0-1.116-.315,2,2,0,0,0-1.135.315,1.653,1.653,0,0,0-.661.868,2.488,2.488,0,0,0-.114.782.1.1,0,0,0,.114.115h3.573A.1.1,0,0,0,582.579,621.189Z" transform="translate(-565.488 -613.874)" fill="#a48356"/>
        <path id="Path_67915" data-name="Path 67915" d="M613.7,626.749a.167.167,0,0,1-.189-.189V621.3a2.246,2.246,0,0,0-.435-1.437,1.542,1.542,0,0,0-1.285-.548,1.576,1.576,0,0,0-1.286.548,2.183,2.183,0,0,0-.454,1.437v5.256a.167.167,0,0,1-.189.189h-1.739a.167.167,0,0,1-.189-.189V621.3a2.246,2.246,0,0,0-.435-1.437,1.543,1.543,0,0,0-1.285-.548,1.575,1.575,0,0,0-1.286.548,2.181,2.181,0,0,0-.454,1.437v5.256a.167.167,0,0,1-.189.189h-1.739a.167.167,0,0,1-.189-.189v-8.734a.167.167,0,0,1,.189-.189h1.739a.167.167,0,0,1,.189.189v.662h.019a2.443,2.443,0,0,1,.9-.747,3.641,3.641,0,0,1,2.949,0,2.773,2.773,0,0,1,1.049.9h.019a3.88,3.88,0,0,1,1.229-.889,4.01,4.01,0,0,1,1.683-.322,3.646,3.646,0,0,1,1.409.256,2.954,2.954,0,0,1,1.04.709,3.017,3.017,0,0,1,.643,1.068,4.039,4.039,0,0,1,.217,1.352v5.747a.167.167,0,0,1-.189.189Z" transform="translate(-580.843 -613.874)" fill="#a48356"/>
        <path id="Path_67916" data-name="Path 67916" d="M646.764,626.749a.167.167,0,0,1-.189-.189V625.9h-.019a2.262,2.262,0,0,1-.964.765,3.872,3.872,0,0,1-1.607.293,4.036,4.036,0,0,1-1.182-.169,2.807,2.807,0,0,1-.974-.509,2.425,2.425,0,0,1-.661-.857,2.852,2.852,0,0,1-.246-1.234A2.506,2.506,0,0,1,641.9,622a4.523,4.523,0,0,1,2.675-.7h1.853a.1.1,0,0,0,.114-.115v-.439a1.432,1.432,0,0,0-.435-1.164,2.559,2.559,0,0,0-1.588-.363,3.753,3.753,0,0,0-1.266.18,2.76,2.76,0,0,0-.813.444q-.17.133-.265-.038l-.7-1.248a.162.162,0,0,1,.038-.246,4.638,4.638,0,0,1,1.323-.643,6.393,6.393,0,0,1,1.909-.246,4.466,4.466,0,0,1,2.94.756,3.067,3.067,0,0,1,.86,2.42v5.955a.167.167,0,0,1-.189.189Zm-2.25-1.512a2.53,2.53,0,0,0,1.5-.378,1.352,1.352,0,0,0,.52-1.172v-.7a.1.1,0,0,0-.114-.114h-1.512a2.926,2.926,0,0,0-1.494.293,1.019,1.019,0,0,0-.472.936Q642.945,625.236,644.514,625.236Z" transform="translate(-603.887 -613.874)" fill="#a48356"/>
        <path id="Path_67917" data-name="Path 67917" d="M668.038,623.017a2.484,2.484,0,0,1-1.957-.662,2.984,2.984,0,0,1-.576-2v-4.8a.1.1,0,0,0-.113-.113h-.605a.167.167,0,0,1-.189-.189V613.98a.167.167,0,0,1,.189-.189h.605a.1.1,0,0,0,.113-.113v-2.5a.167.167,0,0,1,.189-.189h1.739a.167.167,0,0,1,.189.189v2.5a.1.1,0,0,0,.113.113h1.21a.167.167,0,0,1,.189.189v1.267a.167.167,0,0,1-.189.189h-1.21a.1.1,0,0,0-.113.113v4.726a.861.861,0,0,0,.208.671.965.965,0,0,0,.643.18h.473a.167.167,0,0,1,.189.189v1.512a.167.167,0,0,1-.189.189Z" transform="translate(-618.034 -610.029)" fill="#a48356"/>
        <path id="Path_67918" data-name="Path 67918" d="M694.489,608.833a.237.237,0,0,1,.245-.189h1.739a.237.237,0,0,1,.245.189l4.349,12.478q.057.189-.132.189h-1.853a.237.237,0,0,1-.245-.189l-.851-2.5h-4.84l-.85,2.5a.238.238,0,0,1-.246.189h-1.834q-.19,0-.132-.189Zm2.817,8-1.7-4.991h-.057l-1.721,4.991Z" transform="translate(-633.255 -608.625)" fill="#a48356"/>
        <path id="Path_67919" data-name="Path 67919" d="M723.931,621.613a2.47,2.47,0,0,1-1.919-.643,2.87,2.87,0,0,1-.577-1.966V608.833a.167.167,0,0,1,.189-.189h1.739a.167.167,0,0,1,.189.189v10.057a.886.886,0,0,0,.189.652.856.856,0,0,0,.6.18h.416a.167.167,0,0,1,.189.189v1.512a.167.167,0,0,1-.189.189Z" transform="translate(-651.997 -608.625)" fill="#a48356"/>
        <path id="Path_67920" data-name="Path 67920" d="M733.554,627.443v-1.509a.168.168,0,0,1,.189-.191h5.2a.168.168,0,0,1,.189.191v1.509a.168.168,0,0,1-.189.191h-5.2A.168.168,0,0,1,733.554,627.443Z" transform="translate(-659.238 -618.842)" fill="#a48356"/>
        <path id="Path_67921" data-name="Path 67921" d="M760.346,621.472a.281.281,0,0,1-.284-.189l-2.457-5.01h-2.212a.1.1,0,0,0-.114.114v4.9a.167.167,0,0,1-.189.189h-1.853a.167.167,0,0,1-.189-.19v-12.5a.167.167,0,0,1,.189-.19h4.972a4.572,4.572,0,0,1,1.635.284,4.013,4.013,0,0,1,1.3.786,3.566,3.566,0,0,1,.86,1.211,3.839,3.839,0,0,1,.312,1.562,3.683,3.683,0,0,1-.662,2.2,3.729,3.729,0,0,1-1.777,1.344l2.7,5.244a.155.155,0,0,1,.009.171.156.156,0,0,1-.142.076Zm-2.212-7.222a2.041,2.041,0,0,0,1.427-.489,1.691,1.691,0,0,0,.539-1.317,1.712,1.712,0,0,0-.539-1.335,2.042,2.042,0,0,0-1.427-.489h-2.741a.1.1,0,0,0-.114.113v3.4a.1.1,0,0,0,.114.113Z" transform="translate(-670.887 -608.597)" fill="#a48356"/>
        <path id="Path_67922" data-name="Path 67922" d="M782.22,610.667a.167.167,0,0,1-.189-.189v-1.645a.167.167,0,0,1,.189-.189h1.739a.167.167,0,0,1,.189.189v1.645a.167.167,0,0,1-.189.189Zm0,10.833a.167.167,0,0,1-.189-.189v-8.734a.167.167,0,0,1,.189-.189h1.739a.167.167,0,0,1,.189.189v8.734a.167.167,0,0,1-.189.189Z" transform="translate(-688.205 -608.625)" fill="#a48356"/>
        <path id="Path_67923" data-name="Path 67923" d="M792.91,630.46a.167.167,0,0,1-.189-.189v-1.512a.167.167,0,0,1,.189-.189h.34a1.283,1.283,0,0,0,.85-.255,1.924,1.924,0,0,0,.511-.823l.264-.775-3.327-8.583c-.038-.126.012-.189.151-.189h1.871a.227.227,0,0,1,.227.189l2.061,5.955h.038l1.966-5.955a.226.226,0,0,1,.227-.189h1.8q.208,0,.151.189l-3.479,9.49a9.822,9.822,0,0,1-.6,1.352,3.52,3.52,0,0,1-.662.87,2.158,2.158,0,0,1-.794.472,3.233,3.233,0,0,1-1,.142Z" transform="translate(-693.885 -614.183)" fill="#a48356"/>
        <path id="Path_67924" data-name="Path 67924" d="M821.459,626.749a.167.167,0,0,1-.189-.189V625.9h-.019a2.262,2.262,0,0,1-.964.765,3.871,3.871,0,0,1-1.607.293,4.038,4.038,0,0,1-1.182-.169,2.8,2.8,0,0,1-.974-.509,2.422,2.422,0,0,1-.662-.857,2.853,2.853,0,0,1-.246-1.234,2.506,2.506,0,0,1,.974-2.186,4.524,4.524,0,0,1,2.675-.7h1.853a.1.1,0,0,0,.113-.115v-.439a1.432,1.432,0,0,0-.435-1.164,2.559,2.559,0,0,0-1.588-.363,3.753,3.753,0,0,0-1.267.18,2.76,2.76,0,0,0-.813.444q-.17.133-.265-.038l-.7-1.248a.162.162,0,0,1,.038-.246,4.635,4.635,0,0,1,1.324-.643,6.389,6.389,0,0,1,1.909-.246,4.464,4.464,0,0,1,2.94.756,3.066,3.066,0,0,1,.86,2.42v5.955a.167.167,0,0,1-.189.189Zm-2.25-1.512a2.532,2.532,0,0,0,1.5-.378,1.352,1.352,0,0,0,.52-1.172v-.7a.1.1,0,0,0-.113-.114h-1.512a2.928,2.928,0,0,0-1.494.293,1.019,1.019,0,0,0-.473.936Q817.64,625.236,819.209,625.236Z" transform="translate(-708.274 -613.874)" fill="#a48356"/>
        <path id="Path_67925" data-name="Path 67925" d="M846.1,621.5a.167.167,0,0,1-.189-.189v-.681H845.9a2.4,2.4,0,0,1-.907.775,3.3,3.3,0,0,1-1.512.3,3.467,3.467,0,0,1-1.985-.548,3.045,3.045,0,0,1-1.172-1.645,6.25,6.25,0,0,1-.245-1.087,14.589,14.589,0,0,1,0-2.968,6.269,6.269,0,0,1,.245-1.087,3.046,3.046,0,0,1,1.172-1.645,3.467,3.467,0,0,1,1.985-.549,3.3,3.3,0,0,1,1.512.3,2.4,2.4,0,0,1,.907.775h.019v-4.424a.167.167,0,0,1,.189-.189h1.739a.167.167,0,0,1,.189.189v12.478a.167.167,0,0,1-.189.189Zm-2.08-1.683a1.608,1.608,0,0,0,1.7-1.172,4.433,4.433,0,0,0,.142-.7,10.585,10.585,0,0,0,0-2,4.442,4.442,0,0,0-.142-.7,1.808,1.808,0,0,0-3.384,0,4.407,4.407,0,0,0-.142.7,10.694,10.694,0,0,0,0,2,4.4,4.4,0,0,0,.142.7A1.6,1.6,0,0,0,844.024,619.817Z" transform="translate(-722.842 -608.625)" fill="#a48356"/>
        <path id="Path_67926" data-name="Path 67926" d="M872.585,621.5a.167.167,0,0,1-.189-.189v-5.256a2.246,2.246,0,0,0-.435-1.437,1.543,1.543,0,0,0-1.285-.548,1.575,1.575,0,0,0-1.285.548,2.181,2.181,0,0,0-.454,1.437v5.256a.167.167,0,0,1-.189.189h-1.739a.167.167,0,0,1-.189-.189V608.833a.167.167,0,0,1,.189-.189h1.739a.167.167,0,0,1,.189.189v4.4h.019a2.449,2.449,0,0,1,.9-.747,3.647,3.647,0,0,1,2.817-.056,2.945,2.945,0,0,1,.992.709,3.092,3.092,0,0,1,.633,1.068,4.028,4.028,0,0,1,.218,1.352v5.747a.167.167,0,0,1-.189.189Z" transform="translate(-738.869 -608.625)" fill="#a48356"/>
      </g>
    </g>
  </g>
</svg>
