<?xml version="1.0" encoding="UTF-8"?>
<svg id="Layer_1" data-name="Layer 1" xmlns="http://www.w3.org/2000/svg" height="80px" viewBox="250 320 1420 440">
  <defs>
    <style>
      .cls-1 {
        fill: #008441;
      }

      .cls-2 {
        fill: #008e45;
      }

      .cls-3 {
        fill: #67c262;
      }

      .cls-4 {
        fill: none;
        stroke: #9ba39f;
        stroke-miterlimit: 1;
        stroke-width: .44px;
      }

      .cls-5 {
        fill: #9ba39f;
      }

      .cls-6 {
        fill: #65c160;
      }

      .cls-7 {
        fill: #007138;
      }

      .cls-8 {
        fill: #90cc7b;
      }

      .cls-9 {
        fill: #00a14c;
      }
    </style>
  </defs>
  <g>
    <path class="cls-5" d="M276.63,509.47h0c2.71,0,4.74,2.09,4.74,4.87s-2.03,4.87-4.74,4.87-5.42-2.09-5.42-4.87,2.71-4.87,5.42-4.87h0ZM266.48,545.61h0c3.39,0,6.1-2.78,6.1-6.95v-6.26h-6.77c-3.39,0-6.1,2.78-6.1,6.26,0,4.17,3.39,6.95,6.77,6.95h0ZM269.18,514.33h0c0,2.78-2.03,4.87-4.74,4.87s-5.42-2.09-5.42-4.87,2.71-4.87,5.42-4.87,4.74,2.09,4.74,4.87h0ZM265.8,524.06h15.58v15.29c0,3.48,0,5.56,4.06,5.56v9.04c-6.1-.7-7.45-2.09-8.8-3.48-2.71,2.09-6.1,4.17-10.16,4.17-8.13,0-14.9-6.95-14.9-15.99,0-8.34,6.1-14.6,14.22-14.6h0Z"/>
    <path class="cls-5" d="M303.05,560.21h0c2.71,0,4.74,2.09,4.74,4.87s-2.03,5.56-4.74,5.56-5.42-2.78-5.42-5.56,2.71-4.87,5.42-4.87h0ZM295.6,565.08h0c0,2.78-2.03,5.56-4.74,5.56s-5.42-2.78-5.42-5.56,2.71-4.87,5.42-4.87,4.74,2.09,4.74,4.87h0ZM284.76,544.92h2.71c5.42,0,6.1-.7,6.1-5.56l.68-10.43h8.13v10.43c0,4.17,1.35,5.56,5.42,5.56v9.04c-4.06,0-6.77-.7-9.48-2.78-4.06,2.78-6.1,2.78-10.84,2.78h-2.71v-9.04h0Z"/>
    <path class="cls-5" d="M321.34,551.18h0c-4.06,2.78-8.13,2.78-13.55,2.78v-9.04c9.48,0,8.8-.7,8.8-5.56l.68-24.33h8.13v24.33c0,4.87,0,5.56,5.42,5.56v9.04c-2.71,0-6.1,0-9.48-2.78h0Z"/>
    <path class="cls-5" d="M365.36,538.66h0v6.26h4.74v-15.99c0-3.48-3.39-6.26-6.77-6.26-2.03,0-4.06,1.39-5.42,2.78,4.74,2.78,7.45,7.65,7.45,13.21h0ZM349.78,544.92h6.77v-6.26c0-3.48-2.71-6.95-6.77-6.95-3.39,0-6.1,3.48-6.1,6.95s2.71,6.26,6.1,6.26h0ZM336.24,544.92h0c-.68-2.09-1.35-4.17-1.35-6.26,0-8.34,6.77-15.29,14.9-15.29,2.03-5.56,7.45-9.73,13.55-9.73,8.13,0,14.9,6.95,14.9,15.29l.68,25.03h-49.44v-9.04h6.77Z"/>
    <path class="cls-5" d="M393.13,508.77h0c0-5.56,3.39-9.04,8.8-9.73h2.03v5.56c-3.39,0-4.74,1.39-4.74,4.17h5.42v5.56h-11.51v-5.56h0ZM384.32,552.57h0l3.39-7.65h8.8v-24.33h8.8v24.33h6.1v-29.89h8.13v38.23l-29.12.7c-2.03,0-4.06-.7-6.1-1.39h0Z"/>
    <path class="cls-5" d="M436.47,553.96h-8.8v-38.93h8.8v38.93h0Z"/>
    <path class="cls-5" d="M466.95,557.43h0c-2.71,0-4.74,2.09-4.74,4.87s2.03,4.87,4.74,4.87,5.42-2.09,5.42-4.87-2.71-4.87-5.42-4.87h0Z"/>
    <path class="cls-5" d="M479.14,557.43h0c-2.71,0-4.74,2.09-4.74,4.87s2.03,4.87,4.74,4.87,5.42-2.09,5.42-4.87-2.71-4.87-5.42-4.87h0Z"/>
    <path class="cls-5" d="M529.26,519.89h0c2.71,0,4.74-2.78,4.74-5.56s-2.03-4.87-4.74-4.87-4.74,2.09-4.74,4.87,2.03,5.56,4.74,5.56h0Z"/>
    <path class="cls-5" d="M517.07,519.89h0c2.71,0,5.42-2.78,5.42-5.56s-2.71-4.87-5.42-4.87-4.74,2.09-4.74,4.87,2.03,5.56,4.74,5.56h0Z"/>
    <path class="cls-5" d="M524.52,544.92h-15.58v-20.16l-4.74.69c-5.42.7-21,3.48-21,13.21,0,2.09.68,6.26.68,6.26h-18.96c-3.39,0-6.77-2.78-6.77-6.95,0-3.48,2.71-6.26,6.1-6.26v-8.34c-8.13,0-14.22,6.26-14.22,14.6,0,9.04,6.77,15.99,14.9,15.99h19.64c2.71-.7,4.74-1.39,6.1-2.78,2.71-3.48.68-9.04.68-12.51.68-1.39,4.74-2.78,8.8-3.48l.68,18.77h32.51v-27.81h-8.8v18.77h0Z"/>
    <polygon class="cls-5" points="541.45 553.96 541.45 553.96 540.78 514.33 549.58 514.33 549.58 544.92 552.97 544.92 552.97 553.96 541.45 553.96 541.45 553.96 541.45 553.96"/>
    <path class="cls-5" d="M564.48,570.64h0c-2.71,0-5.42-2.78-5.42-5.56s2.71-4.87,5.42-4.87,4.74,2.09,4.74,4.87-2.03,5.56-4.74,5.56h0ZM552.97,544.92h0c5.42,0,6.77-.7,6.77-5.56v-10.43h8.8v10.43c0,4.17.68,5.56,5.42,5.56v9.04c-4.06,0-6.77-.7-9.48-2.78-4.06,2.78-6.77,2.78-11.51,2.78v-9.04h0Z"/>
    <path class="cls-5" d="M590.22,517.81h0c0,2.78-2.71,5.56-5.42,5.56s-4.74-2.78-4.74-5.56,2.03-4.87,4.74-4.87,5.42,2.09,5.42,4.87h0ZM573.96,544.92h0c5.42,0,6.77-.7,6.77-5.56v-10.43h8.8v10.43c0,4.17.68,5.56,5.42,5.56v9.04c-4.06,0-6.77-.7-10.16-2.78-3.39,2.78-6.1,2.78-10.84,2.78v-9.04h0Z"/>
    <polygon class="cls-5" points="599.02 544.92 599.02 544.92 599.02 514.33 607.83 514.33 607.83 553.96 594.96 553.96 594.96 544.92 599.02 544.92 599.02 544.92 599.02 544.92"/>
    <path class="cls-5" d="M622.73,553.96h-8.13v-38.93h8.8s0,15.29-.68,22.25v16.68h0Z"/>
    <path class="cls-5" d="M654.56,531.71h0c-3.39,0-6.1,3.48-6.1,6.95,0,2.78,2.03,5.56,4.74,6.26h7.45v9.04h-25.06v-9.04h6.1c-1.35-2.09-1.35-4.17-1.35-6.26,0-8.34,6.1-15.29,13.55-15.29h6.77v8.34h-6.1Z"/>
    <polygon class="cls-5" points="668.11 553.96 668.11 553.96 668.11 514.33 676.23 514.33 676.23 544.92 679.62 544.92 679.62 553.96 668.11 553.96 668.11 553.96 668.11 553.96"/>
    <path class="cls-5" d="M718.9,544.92h0c8.13,0,8.8-.7,8.8-6.26,0-4.17-2.71-6.95-6.1-6.95-4.74,0-21,2.78-29.12,4.87v8.34h26.41ZM689.1,553.96h-10.16v-9.04h5.42c0-1.39,0-22.25-.68-31.28h8.8v14.6c9.48-2.78,23.71-5.56,29.12-5.56,8.13,0,14.9,6.95,14.9,15.99v1.39c0,2.78.68,4.17,4.06,4.87,0,0,0,2.09.68,9.04-4.06,0-6.1-.7-8.8-2.78-4.06,2.78-8.8,2.78-13.55,2.78-14.22-.7-29.8,0-29.8,0h0Z"/>
    <path class="cls-5" d="M752.77,510.86h0c0,2.78,2.03,4.87,4.74,4.87s5.42-2.09,5.42-4.87-2.71-4.87-5.42-4.87-4.74,2.09-4.74,4.87h0ZM768.34,526.15h0l-4.74,6.95c-.68-.69-2.03-1.39-3.39-1.39-3.39,0-6.77,3.48-6.77,6.95s2.71,6.26,6.1,6.26h10.84v9.04h-12.19c-5.42-.7-10.16-4.17-12.19-9.04h10.84l2.03,9.04h-18.29v-9.04h5.42c-.68-2.09-.68-4.17-.68-6.26,0-8.34,6.77-15.29,14.9-15.29,3.39,0,6.1.7,8.13,2.78h0Z"/>
    <polygon class="cls-5" points="774.44 544.92 774.44 544.92 774.44 514.33 782.57 514.33 782.57 553.96 769.7 553.96 769.7 544.92 774.44 544.92 774.44 544.92 774.44 544.92"/>
    <path class="cls-5" d="M798.14,553.96h-8.8v-38.93h8.8v38.93h0Z"/>
    <path class="cls-5" d="M838.78,509.47h0c2.71,0,5.42,2.09,5.42,4.87s-2.71,4.87-5.42,4.87-4.74-2.09-4.74-4.87,2.03-4.87,4.74-4.87h0ZM828.62,545.61h0c4.06,0,6.77-2.78,6.77-6.95v-6.26h-6.77c-4.06,0-6.1,2.78-6.1,6.26,0,4.17,2.71,6.95,6.1,6.95h0ZM832.01,514.33h0c0,2.78-2.71,4.87-5.42,4.87s-4.74-2.09-4.74-4.87,2.03-4.87,4.74-4.87,5.42,2.09,5.42,4.87h0ZM828.62,524.06h14.9v4.17s.68,4.17.68,11.12c0,3.48,0,5.56,4.06,5.56v9.04c-6.77-.7-7.45-2.09-9.48-3.48-2.71,2.09-6.1,4.17-10.16,4.17-8.13,0-14.9-6.95-14.9-15.99,0-8.34,6.1-14.6,14.9-14.6h0Z"/>
    <path class="cls-5" d="M865.19,560.21h0c2.71,0,4.74,2.09,4.74,4.87s-2.03,5.56-4.74,5.56-4.74-2.78-4.74-5.56,2.03-4.87,4.74-4.87h0ZM858.42,565.08h0c0,2.78-2.71,5.56-5.42,5.56s-4.74-2.78-4.74-5.56,2.03-4.87,4.74-4.87,5.42,2.09,5.42,4.87h0ZM847.59,544.92h2.03c5.42,0,6.77-.7,6.77-5.56v-10.43h8.8v10.43c0,4.17.68,5.56,5.42,5.56v9.04c-4.06,0-6.77-.7-10.16-2.78-3.39,2.78-6.1,2.78-10.84,2.78h-2.03v-9.04h0Z"/>
    <path class="cls-5" d="M890.93,544.92h7.45v-6.26c0-3.48-3.39-6.95-6.77-6.95s-6.77,3.48-6.77,6.95,2.71,6.26,6.1,6.26h0ZM870.61,544.92h0c4.06,0,5.42-2.09,6.1-6.26,0-8.34,6.77-15.29,14.9-15.29s14.9,6.95,14.9,15.29v6.26h2.71v9.04h-18.29c-4.06,0-7.45-2.09-10.16-4.17-2.71,2.09-6.1,4.17-10.16,4.17h0v-9.04h0Z"/>
    <path class="cls-5" d="M920.06,523.37h0c2.71,0,5.42-2.78,5.42-5.56s-2.71-4.87-5.42-4.87-4.74,2.09-4.74,4.87,2.03,5.56,4.74,5.56h0Z"/>
    <path class="cls-5" d="M947.15,519.89h0c2.71,0,4.74-2.78,4.74-5.56s-2.03-4.87-4.74-4.87-4.74,2.09-4.74,4.87,2.03,5.56,4.74,5.56h0Z"/>
    <path class="cls-5" d="M942.41,544.92h-12.19c-4.06,0-5.42-1.39-5.42-5.56v-10.43h-8.8v10.43c0,4.87-1.35,5.56-6.77,5.56v9.04c4.74,0,7.45,0,11.51-2.78,2.71,2.09,5.42,2.78,9.48,2.78h21v-27.81h-8.8v18.77h0Z"/>
    <path class="cls-5" d="M934.96,519.89h0c2.71,0,5.42-2.78,5.42-5.56s-2.71-4.87-5.42-4.87-4.74,2.09-4.74,4.87,2.03,5.56,4.74,5.56h0Z"/>
    <path class="cls-5" d="M993.2,509.47h0c2.71,0,4.74,2.09,4.74,4.87s-2.03,4.87-4.74,4.87c-3.39,0-5.42-2.09-5.42-4.87s2.03-4.87,5.42-4.87h0ZM983.04,545.61h0c3.39,0,6.1-2.78,6.1-6.95v-6.26h-6.77c-3.39,0-6.1,2.78-6.1,6.26,0,4.17,2.71,6.95,6.77,6.95h0ZM985.75,514.33h0c0,2.78-2.03,4.87-4.74,4.87s-5.42-2.09-5.42-4.87,2.71-4.87,5.42-4.87,4.74,2.09,4.74,4.87h0ZM982.37,524.06h14.9l.68,4.17v11.12c0,3.48,0,5.56,4.06,5.56v9.04c-6.77-.7-7.45-2.09-8.8-3.48-2.71,2.09-6.77,4.17-10.16,4.17-8.8,0-15.58-6.95-15.58-15.99,0-8.34,6.77-14.6,14.9-14.6h0Z"/>
    <path class="cls-5" d="M1105.63,526.15h0v18.77h-3.39c-5.42,0-6.1-.7-6.1-2.09v-13.21h-8.8v10.43c0,3.48-.68,4.87-4.74,4.87-2.71-.7-4.74-.7-5.42-4.87v-7.65h-8.13l-.68,10.43c0,1.39-.68,2.09-4.06,2.09h-2.03c-5.42,0-5.42-1.39-6.1-2.09v-15.99h-8.8l.68,13.21c0,3.48-1.35,4.87-4.74,4.87-5.42,0-6.1-.7-6.1-2.09v-13.21h-8.8v10.43c0,3.48-.68,4.87-4.74,4.87-2.71-.7-4.74-.7-5.42-4.87v-7.65h-8.13l-.68,10.43c0,1.39,0,2.09-4.06,2.09h-4.06v9.04c11.51,0,11.51-1.39,13.55-3.48,1.35.7,2.71,2.09,4.74,2.09,1.35.69,3.39,1.39,4.74,1.39h0c3.39-.7,6.1-1.39,8.13-2.78,4.06,2.78,8.8,2.78,10.84,2.78s6.77-1.39,8.8-2.78c3.39,2.78,8.13,2.78,10.16,2.78h2.71c4.06-.7,6.77-1.39,8.8-3.48,1.35.7,2.71,2.09,4.74,2.09,1.35.69,3.39,1.39,4.74,1.39h0c3.39-.7,6.1-1.39,8.13-2.78,4.06,2.78,8.8,2.78,10.84,2.78h12.19v-27.81h-8.8Z"/>
    <path class="cls-5" d="M1142.2,518.5h0v-5.56h-5.42c0-2.78.68-3.48,4.06-3.48v-6.26h-2.03c-5.42.7-8.13,4.87-8.13,9.73v5.56h11.51ZM1136.11,544.92h7.45v-6.26c0-3.48-2.71-6.95-6.77-6.95-3.39,0-6.1,3.48-6.1,6.95s2.03,6.26,5.42,6.26h0ZM1136.79,523.37h0c6.1,0,10.84,3.48,13.55,7.65,1.35,2.09,1.35,4.87,2.03,10.43,0,1.39,0,2.09-.68,3.48h4.06v9.04h-6.1c-4.06,8.34-12.19,13.9-22.35,13.9v-8.34c5.42,0,9.48-2.09,12.87-5.56h-4.06c-8.13,0-14.22-6.95-14.22-15.29s6.77-15.29,14.9-15.29h0Z"/>
    <path class="cls-5" d="M1167.26,544.92h6.77c4.06,0,6.1-2.78,6.1-6.26s-2.71-6.95-6.1-6.95c-4.06,0-6.77,3.48-6.77,6.95v6.26h0ZM1154.4,544.92h4.06v-6.26c0-8.34,6.77-15.29,15.58-15.29,8.13,0,14.9,6.95,14.9,15.29,0,10.43-7.45,15.29-14.9,15.29h-19.64v-9.04h0Z"/>
    <polygon class="cls-5" points="251.58 587.32 251.58 587.32 258.35 587.32 266.48 613.74 266.48 613.74 274.6 587.32 281.38 587.32 270.54 620 262.41 620 251.58 587.32 251.58 587.32 251.58 587.32"/>
    <polygon class="cls-4" points="251.58 587.32 251.58 587.32 258.35 587.32 266.48 613.74 266.48 613.74 274.6 587.32 281.38 587.32 270.54 620 262.41 620 251.58 587.32 251.58 587.32 251.58 587.32 251.58 587.32"/>
    <path class="cls-5" d="M288.15,605.4h10.16c0-3.48-1.35-6.26-4.74-6.26-2.71,0-4.74,2.78-5.42,6.26h0ZM288.15,609.57h0c.68,4.17,4.06,6.26,8.13,6.26,1.35,0,4.06-.7,5.42-1.39l.68,4.87c-2.03.69-4.06,1.39-6.77,1.39-8.8,0-13.55-5.56-13.55-13.21,0-6.95,4.74-12.51,11.51-12.51,7.45,0,10.84,4.87,10.84,11.82v2.78h-16.25Z"/>
    <path class="cls-4" d="M288.15,605.4h10.16c0-3.48-1.35-6.26-4.74-6.26-2.71,0-4.74,2.78-5.42,6.26h0ZM288.15,609.57h0c.68,4.17,4.06,6.26,8.13,6.26,1.35,0,4.06-.7,5.42-1.39l.68,4.87c-2.03.69-4.06,1.39-6.77,1.39-8.8,0-13.55-5.56-13.55-13.21,0-6.95,4.74-12.51,11.51-12.51,7.45,0,10.84,4.87,10.84,11.82v2.78h-16.25Z"/>
    <path class="cls-5" d="M319.98,614.44h0c4.06,0,6.1-3.48,6.1-7.65,0-3.48-2.03-6.95-6.1-6.95-3.39,0-5.42,2.78-5.42,6.95s2.03,7.65,5.42,7.65h0ZM326.08,615.83h-.68c-1.35,2.09-4.06,3.48-6.77,3.48-6.1,0-10.16-5.56-10.16-12.51s4.06-11.82,10.16-11.82c2.71,0,5.42.69,6.77,3.48h.68v-2.78h6.1v22.25c0,8.34-6.77,11.12-12.87,11.12-2.71,0-5.42-.7-7.45-1.39l.68-4.87c2.03.7,4.06,1.39,6.1,1.39,4.74,0,7.45-2.09,7.45-6.26v-2.09h0Z"/>
    <path class="cls-4" d="M319.98,614.44h0c4.06,0,6.1-3.48,6.1-7.65,0-3.48-2.03-6.95-6.1-6.95-3.39,0-5.42,2.78-5.42,6.95s2.03,7.65,5.42,7.65h0ZM326.08,615.83h-.68c-1.35,2.09-4.06,3.48-6.77,3.48-6.1,0-10.16-5.56-10.16-12.51s4.06-11.82,10.16-11.82c2.71,0,5.42.69,6.77,3.48h.68v-2.78h6.1v22.25c0,8.34-6.77,11.12-12.87,11.12-2.71,0-5.42-.7-7.45-1.39l.68-4.87c2.03.7,4.06,1.39,6.1,1.39,4.74,0,7.45-2.09,7.45-6.26v-2.09h0Z"/>
    <path class="cls-5" d="M343.69,605.4h10.16c0-3.48-2.03-6.26-4.74-6.26-3.39,0-5.42,2.78-5.42,6.26h0ZM343.69,609.57h0c0,4.17,3.39,6.26,7.45,6.26,2.03,0,4.06-.7,6.1-1.39l.68,4.87c-2.03.69-4.74,1.39-7.45,1.39-8.13,0-13.55-5.56-13.55-13.21,0-6.95,4.74-12.51,12.19-12.51,6.77,0,10.84,4.87,10.84,11.82v2.78h-16.25Z"/>
    <path class="cls-4" d="M343.69,605.4h10.16c0-3.48-2.03-6.26-4.74-6.26-3.39,0-5.42,2.78-5.42,6.26h0ZM343.69,609.57h0c0,4.17,3.39,6.26,7.45,6.26,2.03,0,4.06-.7,6.1-1.39l.68,4.87c-2.03.69-4.74,1.39-7.45,1.39-8.13,0-13.55-5.56-13.55-13.21,0-6.95,4.74-12.51,12.19-12.51,6.77,0,10.84,4.87,10.84,11.82v2.78h-16.25Z"/>
    <path class="cls-5" d="M361.97,595.67h3.39v-6.26h6.1v6.26h5.42v4.87h-5.42v11.12c0,2.78.68,3.48,2.71,3.48h2.03v4.87h-4.06c-5.42,0-6.77-2.09-6.77-6.95v-12.51h-3.39v-4.87h0Z"/>
    <path class="cls-4" d="M361.97,595.67h3.39v-6.26h6.1v6.26h5.42v4.87h-5.42v11.12c0,2.78.68,3.48,2.71,3.48h2.03v4.87h-4.06c-5.42,0-6.77-2.09-6.77-6.95v-12.51h-3.39v-4.87h0Z"/>
    <path class="cls-5" d="M393.13,608.87h0c-4.06,0-7.45.7-7.45,3.48,0,2.09,1.35,3.48,3.39,3.48,3.39,0,4.74-2.78,4.74-5.56v-1.39h-.68ZM393.81,604.01h0c0-2.78-1.35-4.17-4.74-4.17-2.03,0-4.06.69-6.1,1.39l-1.35-4.87c2.03-.7,5.42-1.39,7.45-1.39,8.13,0,11.51,3.48,11.51,9.04v15.99h-5.42c0-.69-.68-2.09-.68-3.48h0c-1.35,2.78-3.39,4.17-6.77,4.17-4.06,0-8.8-2.09-8.8-7.65,0-7.65,6.77-8.34,14.9-8.34v-.7h0Z"/>
    <path class="cls-4" d="M393.13,608.87h0c-4.06,0-7.45.7-7.45,3.48,0,2.09,1.35,3.48,3.39,3.48,3.39,0,4.74-2.78,4.74-5.56v-1.39h-.68ZM393.81,604.01h0c0-2.78-1.35-4.17-4.74-4.17-2.03,0-4.06.69-6.1,1.39l-1.35-4.87c2.03-.7,5.42-1.39,7.45-1.39,8.13,0,11.51,3.48,11.51,9.04v15.99h-5.42c0-.69-.68-2.09-.68-3.48h0c-1.35,2.78-3.39,4.17-6.77,4.17-4.06,0-8.8-2.09-8.8-7.65,0-7.65,6.77-8.34,14.9-8.34v-.7h0Z"/>
    <path class="cls-5" d="M403.96,595.67h3.39v-6.26h6.1v6.26h5.42v4.87h-5.42v11.12c0,2.78.68,3.48,2.71,3.48h2.03v4.87h-4.06c-5.42,0-6.77-2.09-6.77-6.95v-12.51h-3.39v-4.87h0Z"/>
    <path class="cls-4" d="M403.96,595.67h3.39v-6.26h6.1v6.26h5.42v4.87h-5.42v11.12c0,2.78.68,3.48,2.71,3.48h2.03v4.87h-4.06c-5.42,0-6.77-2.09-6.77-6.95v-12.51h-3.39v-4.87h0Z"/>
    <path class="cls-5" d="M429.02,620h-6.1v-24.33h6.1v24.33h0ZM429.02,591.5h-6.1v-5.56h6.1v5.56h0Z"/>
    <path class="cls-4" d="M429.02,620h-6.1v-24.33h6.1v24.33h0ZM429.02,591.5h-6.1v-5.56h6.1v5.56h0Z"/>
    <path class="cls-5" d="M446.63,599.84h0c-4.06,0-6.1,3.48-6.1,7.65,0,4.87,2.03,7.65,6.1,7.65,3.39,0,5.42-2.78,5.42-7.65,0-4.17-2.03-7.65-5.42-7.65h0ZM446.63,620.69h0c-7.45,0-12.19-4.87-12.19-13.21,0-7.65,4.74-12.51,12.19-12.51s11.51,4.87,11.51,12.51c0,8.34-4.74,13.21-11.51,13.21h0Z"/>
    <path class="cls-4" d="M446.63,599.84h0c-4.06,0-6.1,3.48-6.1,7.65,0,4.87,2.03,7.65,6.1,7.65,3.39,0,5.42-2.78,5.42-7.65,0-4.17-2.03-7.65-5.42-7.65h0ZM446.63,620.69h0c-7.45,0-12.19-4.87-12.19-13.21,0-7.65,4.74-12.51,12.19-12.51s11.51,4.87,11.51,12.51c0,8.34-4.74,13.21-11.51,13.21h0Z"/>
    <path class="cls-5" d="M469.66,595.67h0v3.48h.68c.68-2.78,4.06-4.17,6.77-4.17,5.42,0,8.8,3.48,8.8,9.04v15.99h-6.1v-13.9c0-3.48-1.35-6.26-4.74-6.26-2.71,0-4.74,2.09-4.74,6.95v13.21h-6.77v-24.33h6.1Z"/>
    <path class="cls-4" d="M469.66,595.67h0v3.48h.68c.68-2.78,4.06-4.17,6.77-4.17,5.42,0,8.8,3.48,8.8,9.04v15.99h-6.1v-13.9c0-3.48-1.35-6.26-4.74-6.26-2.71,0-4.74,2.09-4.74,6.95v13.21h-6.77v-24.33h6.1Z"/>
    <path class="cls-5" d="M525.2,592.89h0c-1.35-.69-3.39-1.39-5.42-1.39-6.77,0-10.16,5.56-10.16,11.82s3.39,11.82,10.16,11.82c2.03,0,4.06-.69,6.1-1.39l.68,5.56c-2.03.69-4.74,1.39-7.45,1.39-10.16,0-16.25-6.95-16.25-17.38,0-9.73,6.1-16.68,16.25-16.68,2.71,0,5.42,0,7.45,1.39l-1.35,4.87h0Z"/>
    <path class="cls-4" d="M525.2,592.89h0c-1.35-.69-3.39-1.39-5.42-1.39-6.77,0-10.16,5.56-10.16,11.82s3.39,11.82,10.16,11.82c2.03,0,4.06-.69,6.1-1.39l.68,5.56c-2.03.69-4.74,1.39-7.45,1.39-10.16,0-16.25-6.95-16.25-17.38,0-9.73,6.1-16.68,16.25-16.68,2.71,0,5.42,0,7.45,1.39l-1.35,4.87h0Z"/>
    <path class="cls-5" d="M541.45,599.84h0c-3.39,0-5.42,3.48-5.42,7.65,0,4.87,2.03,7.65,5.42,7.65,4.06,0,6.1-2.78,6.1-7.65,0-4.17-2.03-7.65-6.1-7.65h0ZM541.45,620.69h0c-7.45,0-11.51-4.87-11.51-13.21,0-7.65,4.06-12.51,11.51-12.51s12.19,4.87,12.19,12.51c0,8.34-4.74,13.21-12.19,13.21h0Z"/>
    <path class="cls-4" d="M541.45,599.84h0c-3.39,0-5.42,3.48-5.42,7.65,0,4.87,2.03,7.65,5.42,7.65,4.06,0,6.1-2.78,6.1-7.65,0-4.17-2.03-7.65-6.1-7.65h0ZM541.45,620.69h0c-7.45,0-11.51-4.87-11.51-13.21,0-7.65,4.06-12.51,11.51-12.51s12.19,4.87,12.19,12.51c0,8.34-4.74,13.21-12.19,13.21h0Z"/>
    <polygon class="cls-5" points="568.54 613.74 568.54 613.74 568.54 613.74 573.96 595.67 580.74 595.67 571.93 620 564.48 620 555.68 595.67 563.13 595.67 568.54 613.74 568.54 613.74 568.54 613.74"/>
    <polygon class="cls-4" points="568.54 613.74 568.54 613.74 568.54 613.74 573.96 595.67 580.74 595.67 571.93 620 564.48 620 555.68 595.67 563.13 595.67 568.54 613.74 568.54 613.74 568.54 613.74 568.54 613.74"/>
    <path class="cls-5" d="M589.54,605.4h10.16c0-3.48-2.03-6.26-4.74-6.26-3.39,0-5.42,2.78-5.42,6.26h0ZM589.54,609.57h0c0,4.17,3.39,6.26,7.45,6.26,2.03,0,4.06-.7,6.1-1.39l.68,4.87c-2.03.69-4.74,1.39-7.45,1.39-8.13,0-12.87-5.56-12.87-13.21,0-6.95,4.06-12.51,11.51-12.51,6.77,0,10.84,4.87,10.84,11.82v2.78h-16.25Z"/>
    <path class="cls-4" d="M589.54,605.4h10.16c0-3.48-2.03-6.26-4.74-6.26-3.39,0-5.42,2.78-5.42,6.26h0ZM589.54,609.57h0c0,4.17,3.39,6.26,7.45,6.26,2.03,0,4.06-.7,6.1-1.39l.68,4.87c-2.03.69-4.74,1.39-7.45,1.39-8.13,0-12.87-5.56-12.87-13.21,0-6.95,4.06-12.51,11.51-12.51,6.77,0,10.84,4.87,10.84,11.82v2.78h-16.25Z"/>
    <path class="cls-5" d="M624.76,599.84h-2.03c-3.39,0-5.42,2.09-5.42,8.34v11.82h-6.77v-24.33h6.1v2.78h.68c.68-2.09,2.71-3.48,6.1-3.48h1.35v4.87h0Z"/>
    <path class="cls-4" d="M624.76,599.84h-2.03c-3.39,0-5.42,2.09-5.42,8.34v11.82h-6.77v-24.33h6.1v2.78h.68c.68-2.09,2.71-3.48,6.1-3.48h1.35v4.87h0Z"/>
    <path class="cls-5" d="M647.11,614.44h3.39c7.45,0,10.84-4.17,10.84-11.12,0-6.26-3.39-11.12-10.84-11.12h-3.39v22.25h0ZM640.34,587.32h10.84c10.84,0,16.25,5.56,16.25,15.99s-5.42,16.68-16.25,16.68h-10.84v-32.67h0Z"/>
    <path class="cls-4" d="M647.11,614.44h3.39c7.45,0,10.84-4.17,10.84-11.12,0-6.26-3.39-11.12-10.84-11.12h-3.39v22.25h0ZM640.34,587.32h10.84c10.84,0,16.25,5.56,16.25,15.99s-5.42,16.68-16.25,16.68h-10.84v-32.67h0Z"/>
    <path class="cls-5" d="M678.26,605.4h10.16c0-3.48-2.03-6.26-4.74-6.26s-5.42,2.78-5.42,6.26h0ZM678.26,609.57h0c0,4.17,3.39,6.26,7.45,6.26,2.03,0,4.06-.7,6.1-1.39l.68,4.87c-2.03.69-4.74,1.39-7.45,1.39-8.13,0-12.87-5.56-12.87-13.21,0-6.95,4.06-12.51,11.51-12.51,6.77,0,10.84,4.87,10.84,11.82v2.78h-16.25Z"/>
    <path class="cls-4" d="M678.26,605.4h10.16c0-3.48-2.03-6.26-4.74-6.26s-5.42,2.78-5.42,6.26h0ZM678.26,609.57h0c0,4.17,3.39,6.26,7.45,6.26,2.03,0,4.06-.7,6.1-1.39l.68,4.87c-2.03.69-4.74,1.39-7.45,1.39-8.13,0-12.87-5.56-12.87-13.21,0-6.95,4.06-12.51,11.51-12.51,6.77,0,10.84,4.87,10.84,11.82v2.78h-16.25Z"/>
    <polygon class="cls-5" points="708.74 613.74 708.74 613.74 709.42 613.74 714.84 595.67 721.61 595.67 712.81 620 705.36 620 696.55 595.67 703.32 595.67 708.74 613.74 708.74 613.74 708.74 613.74"/>
    <polygon class="cls-4" points="708.74 613.74 708.74 613.74 709.42 613.74 714.84 595.67 721.61 595.67 712.81 620 705.36 620 696.55 595.67 703.32 595.67 708.74 613.74 708.74 613.74 708.74 613.74 708.74 613.74"/>
    <path class="cls-5" d="M729.74,605.4h10.84c0-3.48-2.03-6.26-5.42-6.26-2.71,0-4.74,2.78-5.42,6.26h0ZM729.74,609.57h0c.68,4.17,4.06,6.26,8.13,6.26,2.03,0,4.06-.7,5.42-1.39l.68,4.87c-2.03.69-4.06,1.39-6.77,1.39-8.8,0-13.55-5.56-13.55-13.21,0-6.95,4.74-12.51,12.19-12.51,6.77,0,10.16,4.87,10.16,11.82v2.78h-16.25Z"/>
    <path class="cls-4" d="M729.74,605.4h10.84c0-3.48-2.03-6.26-5.42-6.26-2.71,0-4.74,2.78-5.42,6.26h0ZM729.74,609.57h0c.68,4.17,4.06,6.26,8.13,6.26,2.03,0,4.06-.7,5.42-1.39l.68,4.87c-2.03.69-4.06,1.39-6.77,1.39-8.8,0-13.55-5.56-13.55-13.21,0-6.95,4.74-12.51,12.19-12.51,6.77,0,10.16,4.87,10.16,11.82v2.78h-16.25Z"/>
    <polygon class="cls-5" points="757.51 620 757.51 620 751.41 620 751.41 585.93 757.51 585.93 757.51 620 757.51 620 757.51 620"/>
    <polygon class="cls-4" points="757.51 620 757.51 620 751.41 620 751.41 585.93 757.51 585.93 757.51 620 757.51 620 757.51 620"/>
    <path class="cls-5" d="M775.12,599.84h0c-4.06,0-6.1,3.48-6.1,7.65,0,4.87,2.03,7.65,6.1,7.65,3.39,0,5.42-2.78,5.42-7.65,0-4.17-2.03-7.65-5.42-7.65h0ZM775.12,620.69h0c-7.45,0-12.19-4.87-12.19-13.21,0-7.65,4.74-12.51,12.19-12.51,6.77,0,11.51,4.87,11.51,12.51,0,8.34-4.74,13.21-11.51,13.21h0Z"/>
    <path class="cls-4" d="M775.12,599.84h0c-4.06,0-6.1,3.48-6.1,7.65,0,4.87,2.03,7.65,6.1,7.65,3.39,0,5.42-2.78,5.42-7.65,0-4.17-2.03-7.65-5.42-7.65h0ZM775.12,620.69h0c-7.45,0-12.19-4.87-12.19-13.21,0-7.65,4.74-12.51,12.19-12.51,6.77,0,11.51,4.87,11.51,12.51,0,8.34-4.74,13.21-11.51,13.21h0Z"/>
    <path class="cls-5" d="M804.24,599.84h0c-4.06,0-6.1,3.48-6.1,7.65,0,4.87,2.03,8.34,6.1,8.34,3.39,0,5.42-3.48,5.42-8.34,0-4.17-2.03-7.65-5.42-7.65h0ZM798.82,629.03h-6.77v-33.37h6.1v2.78h0c2.03-2.09,4.74-3.48,7.45-3.48,6.77,0,10.16,5.56,10.16,12.51,0,7.65-3.39,13.21-10.16,13.21-2.71,0-5.42-1.39-6.77-3.48h0v11.82h0Z"/>
    <path class="cls-4" d="M804.24,599.84h0c-4.06,0-6.1,3.48-6.1,7.65,0,4.87,2.03,8.34,6.1,8.34,3.39,0,5.42-3.48,5.42-8.34,0-4.17-2.03-7.65-5.42-7.65h0ZM798.82,629.03h-6.77v-33.37h6.1v2.78h0c2.03-2.09,4.74-3.48,7.45-3.48,6.77,0,10.16,5.56,10.16,12.51,0,7.65-3.39,13.21-10.16,13.21-2.71,0-5.42-1.39-6.77-3.48h0v11.82h0Z"/>
    <path class="cls-5" d="M827.27,595.67h0v3.48h0c1.35-2.78,4.06-4.17,6.77-4.17,3.39,0,6.1,1.39,6.77,4.17h0c2.03-2.78,4.74-4.17,7.45-4.17,6.1,0,8.8,3.48,8.8,9.04v15.99h-6.1v-13.9c0-3.48-.68-6.26-4.06-6.26-2.03,0-4.74,1.39-4.74,5.56v14.6h-6.1v-13.9c0-4.17-.68-6.26-4.06-6.26-2.71,0-4.74,2.09-4.74,6.95v13.21h-6.1v-24.33h6.1Z"/>
    <path class="cls-4" d="M827.27,595.67h0v3.48h0c1.35-2.78,4.06-4.17,6.77-4.17,3.39,0,6.1,1.39,6.77,4.17h0c2.03-2.78,4.74-4.17,7.45-4.17,6.1,0,8.8,3.48,8.8,9.04v15.99h-6.1v-13.9c0-3.48-.68-6.26-4.06-6.26-2.03,0-4.74,1.39-4.74,5.56v14.6h-6.1v-13.9c0-4.17-.68-6.26-4.06-6.26-2.71,0-4.74,2.09-4.74,6.95v13.21h-6.1v-24.33h6.1Z"/>
    <path class="cls-5" d="M868.58,605.4h10.16c0-3.48-2.03-6.26-4.74-6.26s-4.74,2.78-5.42,6.26h0ZM868.58,609.57h0c.68,4.17,3.39,6.26,7.45,6.26,2.03,0,4.06-.7,6.1-1.39l.68,4.87c-2.03.69-4.74,1.39-7.45,1.39-8.13,0-12.87-5.56-12.87-13.21,0-6.95,4.06-12.51,11.51-12.51,6.77,0,10.84,4.87,10.84,11.82v2.78h-16.25Z"/>
    <path class="cls-4" d="M868.58,605.4h10.16c0-3.48-2.03-6.26-4.74-6.26s-4.74,2.78-5.42,6.26h0ZM868.58,609.57h0c.68,4.17,3.39,6.26,7.45,6.26,2.03,0,4.06-.7,6.1-1.39l.68,4.87c-2.03.69-4.74,1.39-7.45,1.39-8.13,0-12.87-5.56-12.87-13.21,0-6.95,4.06-12.51,11.51-12.51,6.77,0,10.84,4.87,10.84,11.82v2.78h-16.25Z"/>
    <path class="cls-5" d="M896.35,595.67h0v3.48h0c.68-2.78,4.06-4.17,6.77-4.17,5.42,0,8.8,3.48,8.8,9.04v15.99h-6.1v-13.9c0-3.48-1.35-6.26-4.74-6.26-2.03,0-4.74,2.09-4.74,6.95v13.21h-6.77v-24.33h6.77Z"/>
    <path class="cls-4" d="M896.35,595.67h0v3.48h0c.68-2.78,4.06-4.17,6.77-4.17,5.42,0,8.8,3.48,8.8,9.04v15.99h-6.1v-13.9c0-3.48-1.35-6.26-4.74-6.26-2.03,0-4.74,2.09-4.74,6.95v13.21h-6.77v-24.33h6.77Z"/>
    <path class="cls-5" d="M915.31,595.67h4.06v-6.26h6.1v6.26h4.74v4.87h-4.74v11.12c0,2.78.68,3.48,2.71,3.48h2.03v4.87h-4.06c-6.1,0-6.77-2.09-6.77-6.95v-12.51h-4.06v-4.87h0Z"/>
    <path class="cls-4" d="M915.31,595.67h4.06v-6.26h6.1v6.26h4.74v4.87h-4.74v11.12c0,2.78.68,3.48,2.71,3.48h2.03v4.87h-4.06c-6.1,0-6.77-2.09-6.77-6.95v-12.51h-4.06v-4.87h0Z"/>
    <polygon class="cls-5" points="946.47 587.32 946.47 587.32 966.11 587.32 966.11 592.19 953.24 592.19 953.24 600.53 964.76 600.53 964.76 606.09 953.24 606.09 953.24 620 946.47 620 946.47 587.32 946.47 587.32 946.47 587.32"/>
    <polygon class="cls-4" points="946.47 587.32 946.47 587.32 966.11 587.32 966.11 592.19 953.24 592.19 953.24 600.53 964.76 600.53 964.76 606.09 953.24 606.09 953.24 620 946.47 620 946.47 587.32 946.47 587.32 946.47 587.32 946.47 587.32"/>
    <path class="cls-5" d="M980.33,599.84h0c-4.06,0-6.1,3.48-6.1,7.65,0,4.87,2.03,7.65,6.1,7.65s5.42-2.78,5.42-7.65c0-4.17-1.35-7.65-5.42-7.65h0ZM980.33,620.69h0c-7.45,0-12.19-4.87-12.19-13.21,0-7.65,4.74-12.51,12.19-12.51s12.19,4.87,12.19,12.51c0,8.34-4.74,13.21-12.19,13.21h0Z"/>
    <path class="cls-4" d="M980.33,599.84h0c-4.06,0-6.1,3.48-6.1,7.65,0,4.87,2.03,7.65,6.1,7.65s5.42-2.78,5.42-7.65c0-4.17-1.35-7.65-5.42-7.65h0ZM980.33,620.69h0c-7.45,0-12.19-4.87-12.19-13.21,0-7.65,4.74-12.51,12.19-12.51s12.19,4.87,12.19,12.51c0,8.34-4.74,13.21-12.19,13.21h0Z"/>
    <path class="cls-5" d="M1013.52,620h0v-3.48h0c-1.35,2.78-4.06,4.17-7.45,4.17-5.42,0-8.8-3.48-8.8-9.04v-15.99h6.1v13.21c0,4.17,1.35,6.26,4.74,6.26,2.71,0,5.42-1.39,5.42-6.26v-13.21h6.1v24.33h-6.1Z"/>
    <path class="cls-4" d="M1013.52,620h0v-3.48h0c-1.35,2.78-4.06,4.17-7.45,4.17-5.42,0-8.8-3.48-8.8-9.04v-15.99h6.1v13.21c0,4.17,1.35,6.26,4.74,6.26,2.71,0,5.42-1.39,5.42-6.26v-13.21h6.1v24.33h-6.1Z"/>
    <path class="cls-5" d="M1031.81,595.67h0v3.48h.68c.68-2.78,4.06-4.17,6.77-4.17,5.42,0,8.8,3.48,8.8,9.04v15.99h-6.1v-13.9c0-3.48-1.35-6.26-4.74-6.26-2.03,0-4.74,2.09-4.74,6.95v13.21h-6.77v-24.33h6.1Z"/>
    <path class="cls-4" d="M1031.81,595.67h0v3.48h.68c.68-2.78,4.06-4.17,6.77-4.17,5.42,0,8.8,3.48,8.8,9.04v15.99h-6.1v-13.9c0-3.48-1.35-6.26-4.74-6.26-2.03,0-4.74,2.09-4.74,6.95v13.21h-6.77v-24.33h6.1Z"/>
    <path class="cls-5" d="M1064.99,615.83h0c3.39,0,5.42-3.48,5.42-8.34,0-4.17-2.03-7.65-5.42-7.65-4.06,0-5.42,3.48-5.42,7.65,0,4.87,1.35,8.34,5.42,8.34h0ZM1070.41,585.93h6.1v34.06h-6.1v-3.48h0c-2.03,2.78-4.74,4.17-7.45,4.17-6.1,0-10.16-5.56-10.16-13.21,0-6.95,4.06-12.51,10.16-12.51,2.71,0,5.42.69,7.45,3.48h0v-12.51h0Z"/>
    <path class="cls-4" d="M1064.99,615.83h0c3.39,0,5.42-3.48,5.42-8.34,0-4.17-2.03-7.65-5.42-7.65-4.06,0-5.42,3.48-5.42,7.65,0,4.87,1.35,8.34,5.42,8.34h0ZM1070.41,585.93h6.1v34.06h-6.1v-3.48h0c-2.03,2.78-4.74,4.17-7.45,4.17-6.1,0-10.16-5.56-10.16-13.21,0-6.95,4.06-12.51,10.16-12.51,2.71,0,5.42.69,7.45,3.48h0v-12.51h0Z"/>
    <path class="cls-5" d="M1095.47,608.87h0c-4.06,0-7.45.7-7.45,3.48,0,2.09,1.35,3.48,3.39,3.48,3.39,0,5.42-2.78,5.42-5.56v-1.39h-1.35ZM1096.83,604.01h0c0-2.78-2.03-4.17-5.42-4.17-2.03,0-4.06.69-6.1,1.39l-1.35-4.87c2.03-.7,5.42-1.39,8.13-1.39,7.45,0,10.84,3.48,10.84,9.04v10.43c0,1.39,0,4.17.68,5.56h-6.1v-3.48h-.68c-.68,2.78-3.39,4.17-6.77,4.17-4.06,0-8.13-2.09-8.13-7.65,0-7.65,6.77-8.34,14.9-8.34v-.7h0Z"/>
    <path class="cls-4" d="M1095.47,608.87h0c-4.06,0-7.45.7-7.45,3.48,0,2.09,1.35,3.48,3.39,3.48,3.39,0,5.42-2.78,5.42-5.56v-1.39h-1.35ZM1096.83,604.01h0c0-2.78-2.03-4.17-5.42-4.17-2.03,0-4.06.69-6.1,1.39l-1.35-4.87c2.03-.7,5.42-1.39,8.13-1.39,7.45,0,10.84,3.48,10.84,9.04v10.43c0,1.39,0,4.17.68,5.56h-6.1v-3.48h-.68c-.68,2.78-3.39,4.17-6.77,4.17-4.06,0-8.13-2.09-8.13-7.65,0-7.65,6.77-8.34,14.9-8.34v-.7h0Z"/>
    <path class="cls-5" d="M1106.31,595.67h3.39v-6.26h6.1v6.26h5.42v4.87h-5.42v11.12c0,2.78.68,3.48,2.71,3.48h2.71v4.87h-4.74c-5.42,0-6.77-2.09-6.77-6.95v-12.51h-3.39v-4.87h0Z"/>
    <path class="cls-4" d="M1106.31,595.67h3.39v-6.26h6.1v6.26h5.42v4.87h-5.42v11.12c0,2.78.68,3.48,2.71,3.48h2.71v4.87h-4.74c-5.42,0-6.77-2.09-6.77-6.95v-12.51h-3.39v-4.87h0Z"/>
    <path class="cls-5" d="M1131.37,620h-6.1v-24.33h6.1v24.33h0ZM1131.37,591.5h-6.1v-5.56h6.1v5.56h0Z"/>
    <path class="cls-4" d="M1131.37,620h-6.1v-24.33h6.1v24.33h0ZM1131.37,591.5h-6.1v-5.56h6.1v5.56h0Z"/>
    <path class="cls-5" d="M1148.98,599.84h0c-4.06,0-6.1,3.48-6.1,7.65,0,4.87,2.03,7.65,6.1,7.65s5.42-2.78,5.42-7.65c0-4.17-1.35-7.65-5.42-7.65h0ZM1148.98,620.69h0c-7.45,0-12.19-4.87-12.19-13.21,0-7.65,4.74-12.51,12.19-12.51s12.19,4.87,12.19,12.51c0,8.34-4.74,13.21-12.19,13.21h0Z"/>
    <path class="cls-4" d="M1148.98,599.84h0c-4.06,0-6.1,3.48-6.1,7.65,0,4.87,2.03,7.65,6.1,7.65s5.42-2.78,5.42-7.65c0-4.17-1.35-7.65-5.42-7.65h0ZM1148.98,620.69h0c-7.45,0-12.19-4.87-12.19-13.21,0-7.65,4.74-12.51,12.19-12.51s12.19,4.87,12.19,12.51c0,8.34-4.74,13.21-12.19,13.21h0Z"/>
    <path class="cls-5" d="M1172.68,595.67h0v3.48h0c1.35-2.78,4.06-4.17,6.77-4.17,5.42,0,8.8,3.48,8.8,9.04v15.99h-6.1v-13.9c0-3.48-1.35-6.26-4.74-6.26-2.03,0-4.74,2.09-4.74,6.95v13.21h-6.77v-24.33h6.77Z"/>
    <path class="cls-4" d="M1172.68,595.67h0v3.48h0c1.35-2.78,4.06-4.17,6.77-4.17,5.42,0,8.8,3.48,8.8,9.04v15.99h-6.1v-13.9c0-3.48-1.35-6.26-4.74-6.26-2.03,0-4.74,2.09-4.74,6.95v13.21h-6.77v-24.33h6.77Z"/>
  </g>
  <g>
    <g>
      <path class="cls-1" d="M1402.33,666.51c-20.21.12-39.85,10.19-56.69,26.39-2.86,2.75-3.56,2.39-5-1.1-4.54-11.01-9.81-21.67-17.33-31.05-.98-1.22-1.28-2.27-.54-3.77,11.72-23.71,27.88-42.6,54.5-50.12,14.53-4.11,29.07-3.04,43.68-.16,24.05,4.73,48.05,9.66,72.42,12.65,42.92,5.26,80.53-5.56,112.11-35.55,2.88-2.73,5.17-3.8,9.42-2.26,8.17,2.96,16.96,3.53,25.57,4.66,7.44.98,14.54,2.89,20.65,7.57,4.91,3.75,7.65,8.71,7.51,14.79-.4,17.21-3.72,33.65-14.29,47.86-9.57,12.87-22.83,20.37-37.62,25.59-18.45,6.51-37.74,9.44-56.81,13.31-10.02,2.03-20.02,4.15-29.7,7.55-2.17.76-4.23.77-6.55.29-27.16-5.6-53.19-14.33-77.97-26.92-12.35-6.28-25.64-9.71-43.35-9.73Z"/>
      <path class="cls-2" d="M1511.54,609.95c-22.82-.24-45.06-4.89-67.36-9.07-11.97-2.25-23.81-5.29-35.96-6.51-31.53-3.17-57.06,8.06-77.11,32.27-5.65,6.82-10.41,14.24-14.45,22.1-.96,1.88-1.4,2.95-3.67.88-11.58-10.55-15.7-24.48-18.28-39.16-.09-.53,0-1.13.14-1.66,5.31-19.83,14.03-37.75,29.5-51.8,15.02-13.64,33.11-19.77,53.04-20.16,25.23-.49,50.48-.33,75.62-2.92,23.96-2.46,47.39-7.03,68.95-18.46,7.96-4.22,15.36-9.28,21.83-15.55,2.25-2.18,3.03-1.7,4.25.84,6.6,13.75,13.21,27.49,21.5,40.34,7.95,12.3,16.84,23.77,28.84,32.45,1.65,1.19,1.94,1.84.26,3.37-20.89,18.84-44.72,31.14-73.25,32.97-4.6.3-9.24.04-13.87.04Z"/>
      <path class="cls-9" d="M1290.6,591.67c-1.6-4.05-3.01-7.66-4.47-11.26-1.69-4.16-3.37-8.58-6.37-11.76-7-7.39-6.74-15.83-5.49-24.94,2.61-18.91,8.35-36.51,20.25-51.74,12.99-16.64,30.45-25.92,50.63-30.89,23.7-5.84,47.97-8.59,71.84-13.45,18.61-3.79,36.24-9.89,50.71-22.88,2.71-2.43,5.48-4.86,7.76-7.66,1.91-2.34,3.49-2.42,6.03-1.15,14.34,7.17,25.91,17.56,35.56,30.18,9.32,12.17,16.52,25.61,23.42,39.24,1.19,2.35.78,3.56-1.03,5.28-16.07,15.24-35.63,23.48-56.87,28.21-31.84,7.09-64.24,7.46-96.63,7.57-14.39.05-28.53,1.32-42.02,6.84-21.25,8.7-36.03,24.19-46.55,44.13-2.35,4.44-4.32,9.08-6.77,14.29Z"/>
      <path class="cls-6" d="M1467.13,411.53c-10.01,10.52-21.68,17.11-34.79,21.42-16.47,5.4-33.62,7.44-50.6,10.35-16.16,2.77-32.39,5.36-48.03,10.39-32.71,10.51-53.1,33.15-63.29,65.48-3.07,9.75-4.88,19.78-5.77,30.84-6.14-5.07-10.17-10.67-13.65-16.87-21.61-38.52-3.41-92.45,30.8-114.45,14.85-9.55,30.9-16.37,47.33-22.53,17.7-6.63,36.01-11.65,53.04-20.03,3.64-1.79,7.24-3.71,10.67-5.87,1.88-1.18,3.14-1.04,4.84.24,6.19,4.66,11.88,9.81,16.59,15.99,1.36,1.78,2.8,3.52,3.98,5.42,7.55,12.11,18.54,17.75,32.72,17.81,5.17.02,10.34.59,16.15,1.82Z"/>
      <path class="cls-8" d="M1233.12,485.98c-1.31-.35-1.49-1.58-2-2.49-7.56-13.53-16.9-25.73-27.7-36.84-3.13-3.22-5.96-6.7-8.15-10.65-4.36-7.84-3.16-13.94,3.89-19.59,7.04-5.64,14.98-9.84,22.91-14.02,8.92-4.7,18.08-8.93,26.75-14.13,12.32-7.39,17.77-17.6,15.05-32.08-1.48-7.88-1.96-15.91,2.98-23.11,6.14-8.95,15.23-11.83,25.44-12.33,10.69-.52,20.87,1.89,30.76,5.71,13.42,5.19,25.55,12.76,37.66,20.35,8.19,5.13,16.32,10.34,25.28,16.03-3.85,1.96-7.16,3.83-10.62,5.38-16.76,7.56-34.52,12.43-51.65,19.01-19,7.3-37.82,15-53.8,28.07-21.14,17.29-32.39,39.93-35.97,66.69-.18,1.33.25,2.82-.84,4Z"/>
      <path class="cls-7" d="M1405.6,676.66c10.82-.01,21.34,1.99,30.99,6.67,17.34,8.41,35.56,14.24,53.89,19.87,5.75,1.77,11.32,4.06,16.8,6.58,2.31,1.06,2.45,1.88.95,3.86-12.92,17.01-29.28,24.89-50.94,20.19-14.23-3.09-28.36-3.03-41.94,3.37-7.05,3.33-13.2,7.85-18.86,13.13-10.95,10.21-18.27,9.14-25.27-4.15-6.92-13.14-15.32-25.37-22.83-38.15-1.41-2.4-1.18-3.7.74-5.62,15.64-15.62,33.76-25.68,56.48-25.76Z"/>
    </g>
    <g>
      <path class="cls-3" d="M1120.05,692.95c0,5.09.14,10.19-.05,15.28-.11,2.74.88,3.61,3.51,3.45,3.05-.18,6.12.01,9.18-.08,6.35-.2,7.86-1.67,8.03-8.17.19-6.98.14-13.97.24-20.96q.15-10.29,10.44-10.44c4.37-.06,8.75.07,13.12-.12,21.57-.97,31.04,18.27,27.46,35.03-2.99,13.97-13.95,23.11-26.15,22.5-5.43-.27-10.18-2.27-14.37-5.69-1.09-.89-2.07-2.26-3.62-.55-4.39,4.84-10.39,4.7-16.18,5.04-3.49.21-7.52-.96-10.35.43-3.25,1.6-1.44,6.25-2.32,9.5-3.19,11.75-12.31,19.41-24.14,19.91-2.72.11-4.05-.45-3.8-3.54.27-3.33.18-6.7.03-10.04-.1-2.25.66-2.96,2.94-3.11,7.82-.52,11.1-4.09,11.14-12.03.09-17.03.17-34.06.03-51.09-.03-3.25.81-4.22,4.13-4.19,10.72.09,10.72-.05,10.72,10.6,0,2.77,0,5.53,0,8.3ZM1163.2,688.36q-7.62.09-7.61,7.54c0,2.17-.09,4.37.2,6.52.82,6.15,5.92,10.77,11.4,10.52,5.59-.25,10.14-5.09,10.64-11.3.75-9.28-3.8-13.41-14.63-13.27Z"/>
      <path class="cls-3" d="M1068.71,728.09c-1.48-.08-2.16-.2-2.82-.14-23.36,1.91-33.58-23.65-25.34-41.19,5.45-11.6,15.5-17.52,26.88-15.85,10.44,1.54,20.08,11.56,21.56,23.02,1.97,15.22,1.07,29.98-8.48,42.98-7.34,9.99-16.91,16.21-29.4,17.74-2.85.35-4.19-.33-3.75-3.36.08-.57.01-1.16.01-1.75.01-3.2-.88-6.8.29-9.5,1.33-3.08,5.66-1.58,8.51-2.77,4.65-1.95,8.76-4.5,12.55-9.19ZM1075.1,704.24c-.06-3.04.2-6.1-.89-9.06-1.86-5.06-6.07-8.31-10.73-8.17-4.53.14-8.56,3.39-10.23,8.24-3.1,9.02,2.28,16.56,11.79,16.5q10.05-.06,10.06-7.5Z"/>
      <path class="cls-3" d="M964.44,744.5c.34-2.96.67-7.17,1.34-11.33,1.87-11.58,8.8-18.67,19.92-21.89,7.2-2.08,14.59-2.92,22.06-2.8,3.09.05,3.63-.85,2.98-3.8-2.07-9.32-8.6-13.42-17.19-15.16-2.99-.61-6.09-1.05-9.11-.94-3.4.12-4.36-1.19-4.03-4.33.23-2.16.09-4.36.03-6.55-.18-6.27-1.08-6,5.71-5.61,7.01.39,13.94,1.44,20.34,4.57,13.62,6.64,18.61,18.56,19.69,32.71.31,4.06-.05,8.16.16,12.23.13,2.6-.96,3.14-3.31,3.15-6.71.03-13.43.02-20.11.5-17.02,1.23-23.34,7.95-23.82,24.82q-.17,6.05-6.43,6.05-8.36,0-8.22-8.18c.01-.73,0-1.46,0-3.44Z"/>
      <path class="cls-3" d="M1026.13,749.47c.08,5.38-3.64,9.74-8.43,9.86-4.72.12-8.83-4.25-8.9-9.45-.07-5.29,3.74-9.7,8.49-9.83,4.84-.13,8.75,4.03,8.84,9.42Z"/>
    </g>
  </g>
</svg>